<svg width="150" height="373" viewBox="0 0 150 373" fill="none" xmlns="http://www.w3.org/2000/svg">
<path d="M34.8548 145.114C39.1117 148.133 65.8689 164.133 67.9974 165.642C70.1258 167.152 81.6801 174.397 73.4704 188.284C65.5649 202.473 55.2269 219.681 53.4025 222.398C51.5781 225.115 47.3213 229.945 40.632 225.115C33.9426 220.285 34.5508 214.549 36.9833 210.322C39.4157 206.096 51.5781 186.171 51.5781 186.171C51.5781 186.171 54.6187 181.039 49.4497 177.718C44.5847 174.397 25.1249 162.624 25.1249 162.624C25.1249 162.624 16.0031 157.19 21.1721 149.34C26.3412 141.491 30.598 142.095 34.8548 145.114Z" fill="#E91D2D"/>
<path d="M-22.2315 310.119C-22.8584 305.06 -29.7543 275.301 -30.3812 272.622C-31.0081 269.944 -33.5157 257.148 -17.2163 253.279C-0.916997 249.41 19.4572 245.244 22.9051 244.351C26.3531 243.459 32.9355 243.756 34.1893 251.493C35.1296 259.528 30.4279 263.1 25.7262 263.992C20.711 264.885 -3.11113 269.944 -3.11113 269.944C-3.11113 269.944 -9.06666 271.73 -8.12631 277.682C-7.18597 283.336 -2.48422 305.358 -2.48422 305.358C-2.48422 305.358 -0.290091 315.476 -10.007 317.261C-19.4105 318.749 -21.2912 315.476 -22.2315 310.119Z" fill="#E91D2D"/>
<path d="M119.307 142.208C114.383 140.7 83.6069 133.462 80.8371 132.859C78.0672 132.255 65.1414 128.636 68.5267 112.954C71.912 97.272 76.5284 77.6692 77.4517 74.3518C78.375 71.0344 81.1448 65.3043 88.8388 68.0186C96.5327 70.7328 98.0716 76.4629 96.8405 80.9866C95.6095 85.8119 90.0698 108.431 90.0698 108.431C90.0698 108.431 88.8388 114.161 94.6862 115.97C100.534 117.478 122.692 123.208 122.692 123.208C122.692 123.208 133.156 125.621 130.694 134.668C128.54 143.414 124.539 144.017 119.307 142.208Z" fill="#2A3C98"/>
<path d="M146.897 31.1307C143.263 34.6977 122.675 57.2892 120.556 59.37C118.74 61.4508 109.354 70.6658 97.2433 60.5591C84.8299 50.4523 69.6917 37.0758 67.2695 34.995C64.8474 32.9142 60.9115 27.5636 66.9668 22.213C73.0221 16.5651 78.4718 18.3486 82.105 21.3212C85.7382 24.591 103.299 39.7511 103.299 39.7511C103.299 39.7511 107.84 43.6155 112.079 39.1566C116.317 34.995 131.456 18.6459 131.456 18.6459C131.456 18.6459 138.419 10.9172 145.383 17.1596C152.044 23.9965 150.53 27.5636 146.897 31.1307Z" fill="#E91D2D"/>
<path d="M-2.72245 156.617C-1.83429 158.743 13.8566 191.849 13.8566 191.849C13.8566 191.849 20.3698 206.427 6.45523 214.02C-7.4593 221.613 -24.6304 230.724 -28.1831 232.243C-31.7357 233.762 -37.3608 235.28 -40.3213 227.687C-43.2818 220.094 -39.7292 215.235 -35.5844 213.109C-31.4397 210.983 -10.7159 200.353 -10.7159 200.353C-10.7159 200.353 -5.68298 197.619 -8.05141 192.152C-10.4198 186.685 -19.8936 166.336 -19.8936 166.336C-19.8936 166.336 -24.3344 156.921 -16.0449 152.973C-7.16326 148.721 -3.61062 154.491 -2.72245 156.617Z" fill="#2A3C98"/>
<path d="M34.3758 286.488C35.9001 284.664 59.6793 256.403 59.6793 256.403C59.6793 256.403 70.3494 244.248 83.1535 254.276C95.9577 264.304 111.81 276.46 114.554 279.195C117.298 281.93 121.261 286.488 115.469 292.262C109.676 298.036 103.884 296.82 100.226 293.781C96.5674 290.742 77.9709 275.852 77.9709 275.852C77.9709 275.852 73.0931 272.205 69.13 276.763C65.1668 281.322 50.5334 298.643 50.5334 298.643C50.5334 298.643 43.8265 306.848 36.5099 300.467C29.1932 294.085 33.1564 288.311 34.3758 286.488Z" fill="#2A3C98"/>
<path d="M-34.0148 128.48C-33.0931 126.293 -14.9667 93.1774 -14.9667 93.1774C-14.9667 93.1774 -6.67151 78.8064 7.76821 86.3043C22.5152 93.8023 40.3344 102.862 43.7139 105.049C47.0934 107.236 51.7019 110.985 47.0934 118.171C42.485 125.356 36.6477 125.044 32.3465 122.544C28.0453 120.045 6.84652 108.798 6.84652 108.798C6.84652 108.798 1.31643 105.986 -1.75586 111.297C-4.82814 116.608 -15.8883 136.915 -15.8883 136.915C-15.8883 136.915 -21.1112 146.6 -29.4064 141.602C-37.3943 137.228 -34.9365 130.667 -34.0148 128.48Z" fill="#2A3C98"/>
<path d="M123.21 160.138C123.816 162.254 134.729 197.315 134.729 197.315C134.729 197.315 138.973 212.73 123.816 218.171C108.659 223.611 89.864 229.958 86.2263 230.865C82.5886 231.772 76.5258 232.377 74.7069 224.518C72.8881 216.659 77.1321 212.428 81.6792 210.917C86.2263 209.405 108.659 202.151 108.659 202.151C108.659 202.151 114.418 200.035 112.6 194.293C111.084 188.55 104.415 166.788 104.415 166.788C104.415 166.788 101.383 156.813 110.478 154.093C119.875 151.675 122.603 158.022 123.21 160.138Z" fill="#2A3C98"/>
<path d="M33.6662 75.4582C31.5379 75.1475 -4.64339 67.692 -4.64339 67.692C-4.64339 67.692 -20.4537 64.2749 -18.0214 47.8107C-15.589 31.3465 -12.2445 11.4652 -11.3324 7.73748C-10.4202 4.00974 -8.29194 -1.89251 -0.386783 0.592652C7.51837 2.76717 9.03861 8.66943 8.12647 13.6397C7.21434 18.6101 2.95773 42.2191 2.95773 42.2191C2.95773 42.2191 2.04559 48.1214 7.82243 49.6746C13.5993 50.9172 36.0986 55.5769 36.0986 55.5769C36.0986 55.5769 46.4361 57.7514 44.6118 67.0708C42.7875 76.3901 36.0986 76.0795 33.6662 75.4582Z" fill="#2A3C98"/>
</svg>
