<svg width="26" height="27" viewBox="0 0 26 27" fill="none" xmlns="http://www.w3.org/2000/svg">
<path d="M13 26.25C20.1602 26.25 26 20.4609 26 13.25C26 6.08984 20.1602 0.25 13 0.25C5.78906 0.25 0 6.08984 0 13.25C0 20.4609 5.78906 26.25 13 26.25ZM6.55078 13.7578C6.65234 13.4531 6.95703 13.25 7.3125 13.25H10.5625V8.375C10.5625 7.51172 11.2734 6.75 12.1875 6.75H13.8125C14.6758 6.75 15.4375 7.51172 15.4375 8.375V13.25H18.6875C18.9922 13.25 19.2969 13.4531 19.3984 13.7578C19.5508 14.0625 19.4492 14.418 19.2461 14.6719L13.5586 20.3594C13.2539 20.6641 12.6953 20.6641 12.3906 20.3594L6.70312 14.6719C6.5 14.418 6.39844 14.0625 6.55078 13.7578Z" fill="white"/>
</svg>
