<svg width="33" height="26" viewBox="0 0 33 26" fill="none" xmlns="http://www.w3.org/2000/svg">
<path d="M8.98438 6.95312C11.8281 4.10938 16.5 4.10938 19.3438 6.95312C21.8828 9.49219 22.2383 13.5039 20.1562 16.4492L20.1055 16.5C19.5977 17.2617 18.582 17.4141 17.8203 16.9062C17.1094 16.3477 16.9062 15.332 17.4648 14.6211L17.5156 14.5703C18.6836 12.8945 18.4805 10.7109 17.0586 9.28906C15.4844 7.66406 12.8945 7.66406 11.2695 9.28906L5.58203 14.9766C3.95703 16.5508 3.95703 19.1406 5.58203 20.7656C7.00391 22.1875 9.23828 22.3398 10.8633 21.2227L10.9141 21.1211C11.6758 20.6133 12.6914 20.7656 13.1992 21.5273C13.707 22.2383 13.5547 23.2539 12.8438 23.8125L12.7422 23.8633C9.79688 25.9453 5.83594 25.5898 3.29688 23.0508C0.402344 20.207 0.402344 15.5352 3.29688 12.6914L8.98438 6.95312ZM23.9648 19.5469C21.1211 22.4414 16.4492 22.4414 13.6055 19.5469C11.0664 17.0078 10.7109 13.0469 12.793 10.1016L12.8438 10.0508C13.3516 9.28906 14.3672 9.13672 15.1289 9.64453C15.8398 10.1523 16.043 11.168 15.4844 11.9297L15.4336 11.9805C14.2656 13.6055 14.4688 15.8398 15.8906 17.2617C17.4648 18.8867 20.0547 18.8867 21.6797 17.2617L27.3672 11.5742C28.9922 9.94922 28.9922 7.35938 27.3672 5.78516C25.9453 4.36328 23.7109 4.16016 22.0859 5.32812L22.0352 5.37891C21.2734 5.9375 20.2578 5.73438 19.75 5.02344C19.2422 4.3125 19.3945 3.29688 20.1055 2.73828L20.207 2.6875C23.1523 0.605469 27.1133 0.960938 29.6523 3.5C32.5469 6.34375 32.5469 11.0156 29.6523 13.8594L23.9648 19.5469Z" fill="white"/>
</svg>
