<svg width="117" height="70" viewBox="0 0 117 70" fill="none" xmlns="http://www.w3.org/2000/svg">
<path fill-rule="evenodd" clip-rule="evenodd" d="M106.869 0.164824L9.55327 0.00104519L9.55301 0.00117447C9.43378 0.000916149 9.31531 0.00388739 9.1971 0.00814976C9.08232 0.00337074 8.96729 0.000270777 8.85137 1.24514e-05C4.01787 -0.0081248 0.0931308 3.97319 0.0851055 8.8926C0.0849782 9.01053 0.0877811 9.12781 0.0919848 9.24457C0.087399 9.36495 0.0842143 9.48559 0.0839595 9.60701L0.00115914 60.1974C0.00103175 60.3187 0.00383394 60.4395 0.00803766 60.5597C0.0033244 60.6765 0.000267097 60.7938 1.23263e-05 60.9117C-0.00801294 65.831 3.90373 69.8256 8.73724 69.8338C8.85303 69.834 8.96819 69.8312 9.08296 69.8268C9.20105 69.8314 9.31964 69.8348 9.43887 69.8349L106.755 69.9988C106.874 69.9991 106.992 69.9961 107.11 69.9919C107.225 69.9966 107.34 69.9997 107.456 70C112.29 70.0081 116.215 66.0268 116.223 61.1074C116.223 60.9895 116.22 60.8721 116.216 60.7553C116.22 60.635 116.223 60.5143 116.224 60.393L116.307 9.80256C116.307 9.68114 116.304 9.56038 116.3 9.44013C116.304 9.32324 116.307 9.20608 116.308 9.08816C116.316 4.16861 112.404 0.174123 107.571 0.165986C107.455 0.165857 107.34 0.168699 107.225 0.172961C107.107 0.168312 106.988 0.165082 106.869 0.164824ZM30.7858 64.5692L30.8004 54.2863H30.8002L27.6461 54.2817L27.6293 64.5634L30.7858 64.5692ZM44.7431 64.591L44.7543 57.2614H44.7544L45.8343 57.2636C47.6615 57.267 48.5772 57.9706 48.5738 59.3706C48.5704 60.8617 47.6389 61.6066 45.7781 61.602H45.6915L45.6871 64.6392C45.9141 64.6474 46.0893 64.6519 46.214 64.6531C47.867 64.6565 49.2188 64.1672 50.2661 63.184C51.3179 62.2007 51.8427 60.9331 51.846 59.3776C51.8482 57.7495 51.2381 56.4613 50.0132 55.5102C48.9805 54.7134 47.5546 54.315 45.7285 54.3116L41.5675 54.3047L41.5506 64.5852L44.7431 64.591ZM30.5801 12.9109C30.5881 8.01528 26.7203 4.03846 21.9413 4.03045V4.03032C17.1623 4.02232 13.281 7.98536 13.2742 12.8809C13.2663 17.7788 17.1341 21.7545 21.9131 21.7625C26.6921 21.7707 30.5723 17.8076 30.5801 12.9109ZM17.6208 22.275L17.5758 49.8317L58.4264 49.9008C52.7831 46.2625 43.6038 40.9386 30.6353 36.5542L30.6657 18.114C28.9094 21.1961 25.6451 23.2652 21.9099 23.2594C20.3761 23.256 18.9231 22.9024 17.6208 22.275ZM59.6176 49.1053C54.2139 45.5146 45.8602 39.9637 31.9557 35.2624H31.9559L53.6329 37.4685C54.3845 36.558 55.1624 35.5964 55.9704 34.5978C63.5595 25.218 73.7967 12.5653 89.6751 8.23541C78.0831 16.4159 65.3506 32.8377 60.8233 49.9044C60.4383 49.6507 60.0369 49.3839 59.6176 49.1053ZM76.2559 23.3333L78.4775 23.3367H78.4778L86.5323 23.3504H86.5615C90.6068 23.3573 93.8801 26.6709 93.8733 30.7514C93.8665 34.8318 90.5831 38.134 86.5379 38.127H86.5087L82.0757 38.119L73.7436 38.1144C71.6592 41.8207 70.0332 45.9874 68.914 49.8181L82.0567 49.8077C82.9377 49.8377 83.622 49.8573 84.1052 49.8549C85.7761 49.8526 87.3122 49.84 88.728 49.8192C93.061 49.3148 96.9512 47.3437 99.8986 44.4089L99.8627 44.3848C99.717 44.2863 99.9338 44.1613 100.153 44.0352C100.266 43.9697 100.381 43.9039 100.445 43.8413L100.446 43.8401C100.544 43.7331 100.641 43.6248 100.738 43.5166L100.739 43.5154C101.349 42.8234 101.912 42.0855 102.42 41.3105L102.47 41.2369C102.534 41.1379 102.597 41.0365 102.66 40.9352L102.707 40.8581C102.766 40.7614 102.827 40.6623 102.885 40.5645L102.946 40.4608C102.998 40.3699 103.051 40.2801 103.101 40.1891L103.176 40.0544C103.2 40.0117 103.223 39.9689 103.246 39.9261C103.27 39.8837 103.293 39.8413 103.316 39.7989C103.329 39.7724 103.343 39.7459 103.357 39.7194C103.371 39.693 103.384 39.6665 103.398 39.64C103.412 39.6115 103.427 39.5832 103.441 39.5549C103.469 39.5019 103.496 39.4488 103.523 39.3948C103.553 39.335 103.583 39.275 103.612 39.2152C103.648 39.1416 103.686 39.0667 103.72 38.9908C103.757 38.9124 103.794 38.8331 103.829 38.7536C103.851 38.7074 103.873 38.6597 103.894 38.6124L103.908 38.5809C103.94 38.5081 103.972 38.4345 104.003 38.3614L104.024 38.3138C104.045 38.2644 104.065 38.2137 104.087 38.1653C104.101 38.1304 104.115 38.0956 104.129 38.0608C104.153 38.0038 104.176 37.9465 104.199 37.8879L104.257 37.7382C104.296 37.6415 104.333 37.5436 104.369 37.4469L104.416 37.3156C104.424 37.2942 104.431 37.2729 104.439 37.2515C104.469 37.1693 104.498 37.0868 104.526 37.0037C104.541 36.9634 104.554 36.9219 104.568 36.8828C104.588 36.8199 104.609 36.7577 104.629 36.6958C104.644 36.6478 104.66 36.6001 104.675 36.5524C104.681 36.5305 104.688 36.5095 104.694 36.4889C104.698 36.4746 104.703 36.4606 104.708 36.4465C104.743 36.3301 104.778 36.2129 104.811 36.0965L104.843 35.9825C104.878 35.8627 104.91 35.7418 104.942 35.6198L104.966 35.5231C104.999 35.3929 105.032 35.2616 105.063 35.1304L105.078 35.0648C105.087 35.0234 105.096 34.9818 105.105 34.9402C105.124 34.8501 105.144 34.7597 105.162 34.67L105.179 34.594C105.205 34.4616 105.231 34.3303 105.253 34.1979L105.265 34.1312C105.289 33.9976 105.311 33.8641 105.333 33.7293L105.343 33.6592C105.363 33.5234 105.382 33.3875 105.4 33.2527L105.409 33.1848C105.427 33.0455 105.442 32.9084 105.455 32.7691L105.463 32.7081C105.478 32.5664 105.49 32.4248 105.501 32.2831L105.505 32.2255C105.516 32.0805 105.526 31.9354 105.534 31.788L105.536 31.7442C105.544 31.5911 105.551 31.4368 105.554 31.2826L105.555 31.2595C105.56 31.0982 105.562 30.936 105.562 30.7725C105.562 30.6089 105.56 30.4466 105.556 30.2854C105.555 30.229 105.553 30.1726 105.551 30.1162L105.55 30.1103C105.547 30.0086 105.544 29.9058 105.538 29.8053C105.537 29.7604 105.534 29.7161 105.532 29.672C105.531 29.6492 105.529 29.6265 105.528 29.6038L105.527 29.5883C105.522 29.5002 105.517 29.411 105.51 29.3229C105.506 29.2549 105.499 29.1893 105.494 29.1214C105.486 29.0293 105.479 28.9382 105.47 28.8473C105.465 28.793 105.459 28.7387 105.453 28.6854C105.451 28.6698 105.449 28.6543 105.447 28.6389C105.438 28.5491 105.429 28.4616 105.418 28.373C105.409 28.3016 105.4 28.2336 105.39 28.1635L105.39 28.1623C105.378 28.0764 105.367 27.9903 105.354 27.9044C105.344 27.8318 105.332 27.7593 105.321 27.6879C105.308 27.605 105.294 27.5221 105.281 27.4403C105.27 27.3741 105.258 27.3079 105.245 27.2417L105.241 27.2193C105.227 27.1387 105.212 27.0592 105.195 26.9787C105.181 26.9038 105.165 26.829 105.149 26.7565C105.133 26.677 105.118 26.5988 105.1 26.5205C105.083 26.4467 105.066 26.373 105.049 26.2982C105.031 26.2223 105.013 26.1439 104.993 26.068C104.975 25.9932 104.956 25.9195 104.937 25.8458C104.917 25.7688 104.897 25.6938 104.876 25.6179C104.86 25.5569 104.842 25.4967 104.826 25.4366C104.822 25.4229 104.818 25.4093 104.814 25.3957C104.802 25.3512 104.789 25.3068 104.775 25.2624C104.766 25.2331 104.758 25.2039 104.749 25.1746C104.727 25.0997 104.704 25.026 104.681 24.9524C104.665 24.901 104.649 24.8507 104.632 24.8C104.625 24.778 104.618 24.7559 104.611 24.7336C104.587 24.6598 104.563 24.5849 104.537 24.5113C104.513 24.441 104.488 24.3696 104.463 24.2983C104.438 24.2245 104.412 24.1508 104.384 24.076C104.358 24.0081 104.332 23.9391 104.305 23.8711C104.278 23.7963 104.251 23.7214 104.221 23.6467C104.216 23.6334 104.21 23.62 104.205 23.6066C104.183 23.5525 104.161 23.4976 104.138 23.4441C104.119 23.3965 104.1 23.3485 104.08 23.3003C104.07 23.275 104.06 23.2496 104.049 23.2242C104.02 23.1563 103.991 23.0895 103.959 23.0204L103.95 22.9981C103.923 22.934 103.895 22.8692 103.865 22.8063C103.837 22.7407 103.807 22.6751 103.776 22.6105C103.742 22.537 103.708 22.4632 103.674 22.3919C103.644 22.3274 103.612 22.2653 103.581 22.2031L103.577 22.1953C103.542 22.1243 103.507 22.0532 103.472 21.9832C103.442 21.9233 103.411 21.8634 103.38 21.8058C103.34 21.7299 103.301 21.6538 103.26 21.579C103.248 21.5562 103.236 21.5339 103.224 21.5117C103.209 21.4846 103.194 21.4577 103.18 21.4305C103.156 21.3891 103.133 21.347 103.11 21.305C103.087 21.263 103.064 21.221 103.04 21.1796C103.023 21.1508 103.006 21.1231 102.988 21.0932C102.716 20.6224 102.425 20.163 102.116 19.7185L102.088 19.6771C102.04 19.6089 101.992 19.5414 101.943 19.4737C101.923 19.4463 101.904 19.4189 101.884 19.3915C101.866 19.3651 101.846 19.3386 101.825 19.3109C101.76 19.2234 101.694 19.1347 101.625 19.046C101.603 19.0161 101.58 18.985 101.557 18.954C101.491 18.8688 101.423 18.7825 101.355 18.6984C101.331 18.6673 101.305 18.635 101.279 18.6051C101.213 18.521 101.146 18.4393 101.076 18.3564C101.062 18.3409 101.049 18.3245 101.035 18.3081C101.022 18.2917 101.009 18.2753 100.995 18.2597C100.931 18.1837 100.865 18.1087 100.801 18.0346L100.786 18.0179C100.765 17.9939 100.743 17.9691 100.721 17.9447C100.715 17.9376 100.709 17.9305 100.703 17.9235C100.632 17.844 100.56 17.7646 100.488 17.6875C100.46 17.6552 100.432 17.6241 100.403 17.593C100.33 17.5159 100.257 17.4387 100.183 17.3616L100.097 17.2729C100.022 17.1956 99.9456 17.1185 99.8692 17.0426L99.7826 16.9573C99.7299 16.9049 99.6761 16.8535 99.6224 16.802C99.5971 16.7779 99.5718 16.7537 99.5467 16.7294L99.4646 16.6533C99.3837 16.5774 99.3005 16.5001 99.2174 16.4253L99.1386 16.3551C99.0544 16.2792 98.969 16.2043 98.8836 16.1307L98.806 16.0651C98.7173 15.9891 98.6296 15.9154 98.5408 15.8417L98.4689 15.7841C98.3767 15.708 98.2845 15.6332 98.1901 15.5607L98.1283 15.5122C98.1014 15.4916 98.0745 15.4709 98.0477 15.4502C97.9771 15.3958 97.9066 15.3414 97.835 15.2888L97.7821 15.2508C97.6799 15.1737 97.5765 15.0977 97.472 15.024L97.4372 14.9998C97.3271 14.9216 97.2158 14.8456 97.1045 14.7708L97.0843 14.7569C95.264 13.5295 93.2211 12.6096 91.03 12.073L91.0266 12.0719C90.884 12.0372 90.7402 12.0039 90.5963 11.9716L90.5795 11.9682C90.4391 11.9371 90.2953 11.9072 90.1537 11.8807L90.1311 11.8749C89.9895 11.8484 89.8469 11.8219 89.7041 11.7978L89.6806 11.7944C89.5368 11.7691 89.3942 11.7483 89.2503 11.7276L89.2256 11.7242C89.0818 11.7035 88.9368 11.6828 88.7908 11.6654L88.7727 11.6632C88.6243 11.6459 88.476 11.6298 88.3288 11.616L88.3175 11.6148C88.2856 11.6118 87.9516 11.6037 87.4988 11.5927L87.268 11.5871C83.4936 14.8293 79.7191 18.8292 76.2559 23.3333ZM66.2898 11.4949H66.29L67.5203 11.4961L78.5178 11.5156L79.0976 11.5202C67.8822 17.249 59.9959 26.9959 53.8474 34.595L53.6427 34.848C53.6406 34.2688 53.6394 33.4203 53.6394 33.2775L53.653 25.2065L53.6575 21.6165L53.6754 11.4361L57.8342 11.4811L66.2898 11.4949ZM88.3198 54.6364L85.1634 54.6307L85.1533 61.0667C85.1521 62.1961 85.4713 63.0759 86.1118 63.7125C86.7533 64.3481 87.6501 64.6659 88.8019 64.6682H89.6424L89.6469 61.7587H89.4829C89.0166 61.7576 88.703 61.6792 88.5469 61.5261C88.3883 61.3708 88.3086 61.0599 88.3086 60.5959L88.3198 54.6364ZM80.3304 62.2654L80.3348 59.6195L80.335 59.6193L79.4248 59.6171L79.4259 58.3679C79.4282 57.6736 79.6743 57.3247 80.1687 57.3259C80.4237 57.3259 80.598 57.4019 80.6968 57.555C80.7935 57.7058 80.844 57.9787 80.8429 58.3702L80.8339 64.6543L83.9881 64.6589L83.9982 58.1778C84.0005 56.8838 83.705 55.9259 83.1082 55.3064C82.516 54.6858 81.5957 54.3726 80.3507 54.3714C79.0606 54.3692 78.0584 54.7089 77.3459 55.3916C76.6302 56.0732 76.274 57.0335 76.2717 58.2677L76.2627 64.6463L79.4157 64.6509L79.4202 62.263L80.3304 62.2654ZM74.9648 59.7253L71.8882 59.6402V59.6405C71.8208 60.3335 71.6039 60.8655 71.232 61.2328C70.8645 61.6058 70.3679 61.7889 69.7454 61.7877C69.133 61.7864 68.6273 61.5759 68.2273 61.1555C67.8295 60.7319 67.6293 60.1976 67.6305 59.5552C67.6328 58.8863 67.8373 58.3325 68.2452 57.903C68.6541 57.4701 69.1688 57.2536 69.797 57.2548C70.779 57.2559 71.4466 57.797 71.796 58.8747L74.9446 58.6709C74.6659 57.4596 74.1895 56.512 73.5164 55.8316C72.5422 54.8483 71.3297 54.3554 69.8734 54.3532C68.3923 54.352 67.1473 54.8483 66.1359 55.8477C65.1247 56.8483 64.6157 58.0813 64.6145 59.5493C64.6112 61.0081 65.1055 62.2273 66.0933 63.2152C67.0823 64.1996 68.3127 64.6946 69.7847 64.697C71.2308 64.7004 72.405 64.2686 73.304 63.404C74.2042 62.5393 74.7592 61.3131 74.9648 59.7253ZM62.0469 55.8522C60.9873 54.8436 59.7153 54.3359 58.2332 54.3347H58.2328C56.6664 54.3312 55.345 54.8251 54.2606 55.8165C53.1785 56.8125 52.6347 58.0261 52.6324 59.4606C52.6302 60.8802 53.1652 62.0937 54.2371 63.1012C55.3091 64.1063 56.6037 64.6106 58.1251 64.614C59.6522 64.6164 60.9535 64.1189 62.0232 63.1219C63.0941 62.1225 63.629 60.9089 63.6324 59.479C63.6347 58.0732 63.1044 56.8643 62.0469 55.8522ZM56.5015 57.8762C56.9543 57.4353 57.4949 57.2165 58.1365 57.2177H58.1364C58.7802 57.2189 59.3264 57.4364 59.7714 57.8762C60.2186 58.3149 60.4411 58.8469 60.44 59.4732C60.44 60.0995 60.2153 60.6314 59.768 61.069C59.3175 61.5053 58.7747 61.7229 58.1308 61.7229C57.4937 61.7207 56.9522 61.4995 56.4993 61.0574C56.0475 60.6199 55.8228 60.0869 55.8239 59.4662C55.8262 58.8445 56.0509 58.3138 56.5015 57.8762ZM32.3446 58.0593L32.3345 64.5714L32.3346 64.5713L34.3202 64.5736L35.4889 64.5759L35.499 58.1674C35.5001 57.556 35.7237 57.2497 36.172 57.2509C36.635 57.2521 36.8642 57.5596 36.863 58.1697L36.8529 64.5794L40.0082 64.584L40.0183 58.1755C40.0195 56.9263 39.7026 55.9672 39.0688 55.3017C38.4372 54.6328 37.5215 54.2989 36.3225 54.2965L32.3502 54.2897L32.3446 58.0593Z" fill="white"/>
</svg>
