<svg width="112" height="80" viewBox="0 0 112 80" fill="none" xmlns="http://www.w3.org/2000/svg">
<path d="M28.5326 35.0731C26.4856 31.524 26.9869 26.9311 30.0365 23.8831C33.0861 20.8351 37.6814 20.3758 41.2324 22.4217L49.7546 13.904C41.4412 7.26512 29.3264 7.80792 21.6397 15.4906C13.953 23.1733 13.4099 35.2818 20.0104 43.5908L28.5326 35.0731Z" fill="white"/>
<path d="M53.1802 17.3278L44.658 25.8455C46.705 29.3946 46.2037 33.9875 43.1541 37.0355C40.1044 40.0835 35.5091 40.5428 31.9582 38.4969L23.436 47.0146C31.7494 53.6534 43.8642 53.1106 51.5509 45.428C59.2376 37.7453 59.7807 25.6367 53.1802 17.3278Z" fill="white"/>
<path d="M80.0418 38.5804C76.4909 40.6263 71.8956 40.1252 68.8459 37.0772C65.7963 34.0292 65.3368 29.4363 67.3838 25.8873L58.8616 17.3695C52.2193 25.6785 52.7624 37.787 60.4491 45.4697C68.1358 53.1524 80.2506 53.6952 88.564 47.0981L80.0418 38.5804Z" fill="white"/>
<path d="M62.2872 13.9457L70.8094 22.4635C74.3603 20.4175 78.9556 20.9186 82.0052 23.9666C85.0548 27.0146 85.5144 31.6075 83.4674 35.1566L91.9896 43.6743C98.6318 35.3653 98.0888 23.2568 90.4021 15.5741C82.7154 7.89143 70.6005 7.34864 62.2872 13.9457Z" fill="white"/>
<path d="M0.0417755 9.39459V21.4614C4.01044 22.547 6.89295 26.1378 6.89295 30.4384C6.89295 34.7391 3.96867 38.3299 0 39.3737V51.4405C10.5692 50.2714 18.7572 41.3361 18.799 30.4384C18.8407 19.5407 10.611 10.6054 0.0417755 9.39459Z" fill="white"/>
<path d="M111.958 39.5407C107.99 38.4551 105.107 34.8643 105.107 30.5637C105.107 26.263 108.031 22.6722 112 21.6284V9.56158C101.431 10.7307 93.2428 19.666 93.201 30.5637C93.1593 41.4614 101.389 50.3967 111.916 51.6075L111.958 39.5407Z" fill="white"/>
<path d="M16.9609 13.3612C20.6524 13.3612 23.6449 10.3702 23.6449 6.68058C23.6449 2.991 20.6524 0 16.9609 0C13.2693 0 10.2768 2.991 10.2768 6.68058C10.2768 10.3702 13.2693 13.3612 16.9609 13.3612Z" fill="white"/>
<path d="M55.9373 13.4029C59.6288 13.4029 62.6214 10.4119 62.6214 6.72233C62.6214 3.03275 59.6288 0.041748 55.9373 0.041748C52.2458 0.041748 49.2532 3.03275 49.2532 6.72233C49.2532 10.4119 52.2458 13.4029 55.9373 13.4029Z" fill="white"/>
<path d="M94.9138 13.4864C98.6053 13.4864 101.598 10.4954 101.598 6.80583C101.598 3.11624 98.6053 0.125244 94.9138 0.125244C91.2223 0.125244 88.2298 3.11624 88.2298 6.80583C88.2298 10.4954 91.2223 13.4864 94.9138 13.4864Z" fill="white"/>
<path d="M0.626617 68.1419V61.2943H3.00782C3.5509 61.2943 4.05221 61.3778 4.42818 61.5866C4.84594 61.7536 5.18014 62.0042 5.47257 62.3382C5.765 62.6305 5.97388 63.0062 6.0992 63.4238C6.22453 63.8413 6.30808 64.3006 6.30808 64.7599C6.30808 65.2609 6.22453 65.762 6.05743 66.1795C5.89033 66.5971 5.68145 66.9728 5.38902 67.2651C5.09659 67.5574 4.76239 67.8079 4.34463 67.9749C3.92688 68.1419 3.46735 68.2254 2.96604 68.2254L0.626617 68.1419ZM5.43079 64.7181C5.43079 64.3424 5.38902 63.9666 5.26369 63.6325C5.13837 63.2985 5.01304 63.048 4.80416 62.7975C4.59529 62.5469 4.34463 62.3799 4.0522 62.2547C3.75978 62.1294 3.42557 62.0459 3.00782 62.0459H1.5039V67.3486H3.00782C3.3838 67.3486 3.75978 67.2651 4.0522 67.1399C4.34463 67.0146 4.59529 66.8058 4.80416 66.5971C5.01304 66.3465 5.18014 66.096 5.26369 65.762C5.34724 65.4697 5.43079 65.0939 5.43079 64.7181Z" fill="white"/>
<path d="M7.39426 62.1712V61.1273H8.22933V62.1712H7.39426ZM7.39426 68.1419V63.1315H8.22933V68.1419H7.39426Z" fill="white"/>
<path d="M12.282 63.8831C11.8642 63.8831 11.4882 64.0083 11.154 64.2171C10.8198 64.4259 10.611 64.7181 10.4439 65.0939V68.1837H9.60835V63.1733H10.4021V64.3424C10.5692 64.0083 10.8198 63.7161 11.0705 63.5073C11.3629 63.2985 11.6554 63.1733 11.9896 63.1315C12.0731 63.1315 12.1149 63.1315 12.1567 63.1315C12.1984 63.1315 12.2402 63.1315 12.282 63.1315V63.8831Z" fill="white"/>
<path d="M15.2063 68.2672C14.8303 68.2672 14.4961 68.1837 14.1619 68.0584C13.8277 67.9332 13.577 67.7244 13.3681 67.4739C13.1593 67.2234 12.9504 66.9728 12.8251 66.6388C12.6997 66.3048 12.658 65.9708 12.658 65.6367C12.658 65.3027 12.7415 64.9687 12.8668 64.6346C12.9922 64.3006 13.1593 64.0501 13.4099 63.7996C13.6188 63.549 13.9112 63.382 14.2454 63.2568C14.5796 63.1315 14.9138 63.048 15.2898 63.048C15.6658 63.048 16 63.1315 16.3342 63.2568C16.6266 63.382 16.9191 63.5908 17.1279 63.8413C17.3368 64.0918 17.5039 64.3424 17.6292 64.6764C17.7546 65.0104 17.7963 65.3027 17.7963 65.6367C17.7963 65.7202 17.7963 65.762 17.7963 65.8455C17.7963 65.8873 17.7963 65.929 17.7963 65.9708H13.6188C13.6188 66.2213 13.7023 66.4301 13.7859 66.6388C13.8694 66.8476 13.9948 67.0146 14.1619 67.1816C14.329 67.3486 14.4961 67.4321 14.705 67.5156C14.9138 67.5992 15.1227 67.6409 15.3316 67.6409C15.4987 67.6409 15.624 67.6409 15.7911 67.5991C15.9582 67.5574 16.0835 67.5156 16.2089 67.4321C16.3342 67.3486 16.4595 67.2651 16.5431 67.1816C16.6266 67.0981 16.7102 66.9728 16.752 66.8476L17.5039 67.0564C17.4204 67.2234 17.295 67.4321 17.1697 67.5574C17.0444 67.7244 16.8773 67.8497 16.6684 67.9749C16.4595 68.1002 16.2506 68.1837 16.0418 68.2255C15.8329 68.2672 15.4569 68.2672 15.2063 68.2672ZM16.9191 65.3027C16.9191 65.0522 16.8355 64.8434 16.752 64.6346C16.6684 64.4259 16.5431 64.2589 16.376 64.1336C16.2089 64.0083 16.0418 63.8831 15.8329 63.7996C15.624 63.7161 15.4151 63.6743 15.2063 63.6743C14.9974 63.6743 14.7885 63.7161 14.5796 63.7996C14.3708 63.8831 14.2037 64.0083 14.0365 64.1336C13.8694 64.2589 13.7441 64.4676 13.6606 64.6346C13.577 64.8434 13.4935 65.0522 13.4935 65.3027H16.9191Z" fill="white"/>
<path d="M18.3394 65.6367C18.3394 65.3027 18.3812 64.9687 18.5065 64.6346C18.6318 64.3006 18.7989 64.0501 19.0078 63.7996C19.2167 63.549 19.5091 63.382 19.8016 63.2568C20.094 63.1315 20.47 63.048 20.8459 63.048C21.3472 63.048 21.765 63.1733 22.141 63.382C22.517 63.5908 22.7676 63.8831 22.9765 64.2589L22.141 64.5094C22.0157 64.2589 21.8486 64.0918 21.5979 63.9666C21.3472 63.8413 21.0966 63.7578 20.8459 63.7578C20.5953 63.7578 20.3864 63.7996 20.1775 63.8831C19.9687 63.9666 19.8016 64.0918 19.6345 64.2589C19.4674 64.4259 19.3838 64.6346 19.3003 64.8434C19.2167 65.0522 19.1749 65.3027 19.1749 65.595C19.1749 65.8455 19.2167 66.096 19.3003 66.3465C19.3838 66.5971 19.5091 66.7641 19.6762 66.9311C19.8433 67.0981 20.0104 67.2234 20.2193 67.3486C20.4282 67.4321 20.6371 67.4739 20.8877 67.4739C21.0548 67.4739 21.1801 67.4739 21.3472 67.4321C21.4726 67.3904 21.6397 67.3486 21.7232 67.2651C21.8486 67.1816 21.9321 67.0981 22.0574 67.0146C22.141 66.9311 22.2245 66.8058 22.2663 66.7223L23.1018 66.9728C23.0183 67.1399 22.9347 67.3486 22.7676 67.4739C22.6423 67.6409 22.4752 67.7662 22.2663 67.8497C22.0992 67.9749 21.8903 68.0584 21.6397 68.1002C21.4308 68.1837 21.1801 68.1837 20.9295 68.1837C20.5535 68.1837 20.2193 68.1002 19.8851 67.9749C19.5509 67.8497 19.3003 67.6409 19.0914 67.3904C18.8825 67.1399 18.6736 66.8893 18.5483 66.5553C18.423 66.3465 18.3394 66.0125 18.3394 65.6367Z" fill="white"/>
<path d="M23.6449 65.6785C23.6449 65.3444 23.6867 65.0104 23.812 64.6764C23.9373 64.3424 24.1044 64.0918 24.3133 63.8413C24.5222 63.5908 24.8146 63.4238 25.107 63.2985C25.3995 63.1733 25.7754 63.0898 26.1514 63.0898C26.6527 63.0898 27.0705 63.215 27.4465 63.4238C27.8224 63.6325 28.0731 63.9248 28.282 64.3006L27.4465 64.5511C27.3211 64.3006 27.154 64.1336 26.9034 64.0083C26.6527 63.8831 26.4021 63.7996 26.1514 63.7996C25.9008 63.7996 25.6919 63.8413 25.483 63.9248C25.2741 64.0083 25.107 64.1336 24.9399 64.3006C24.7728 64.4676 24.6893 64.6764 24.6057 64.8852C24.5222 65.0939 24.4804 65.3444 24.4804 65.6367C24.4804 65.8872 24.5222 66.1378 24.6057 66.3883C24.6893 66.6388 24.8146 66.8058 24.9817 66.9728C25.1488 67.1399 25.3159 67.2651 25.5248 67.3904C25.7337 67.4739 25.9425 67.5156 26.1932 67.5156C26.3603 67.5156 26.4856 67.5156 26.6527 67.4739C26.7781 67.4321 26.9452 67.3904 27.0287 67.3069C27.154 67.2234 27.2376 67.1399 27.3629 67.0563C27.4465 66.9728 27.53 66.8476 27.5718 66.7641L28.4073 67.0146C28.3237 67.1816 28.2402 67.3904 28.0731 67.5156C27.9478 67.6827 27.7807 67.8079 27.5718 67.8914C27.4047 68.0167 27.1958 68.1002 26.9452 68.1419C26.7363 68.2254 26.4856 68.2254 26.235 68.2254C25.859 68.2254 25.5248 68.1419 25.1906 68.0167C24.8564 67.8914 24.6057 67.6827 24.3969 67.4321C24.188 67.1816 23.9791 66.9311 23.8538 66.5971C23.6867 66.3465 23.6449 66.0125 23.6449 65.6785Z" fill="white"/>
<path d="M29.3264 62.2129V61.1691H30.1614V62.2129H29.3264ZM29.3264 68.1837V63.1733H30.1614V68.1837H29.3264Z" fill="white"/>
<path d="M33.7128 68.309C33.3368 68.309 33.0026 68.2255 32.6684 68.1002C32.376 67.9749 32.0836 67.7662 31.8747 67.5157C31.6658 67.2651 31.4987 67.0146 31.3734 66.6806C31.248 66.3465 31.2063 66.0543 31.2063 65.6785C31.2063 65.3445 31.2898 65.0104 31.4151 64.6764C31.5405 64.3424 31.7076 64.0919 31.9165 63.8413C32.1253 63.5908 32.4178 63.4238 32.7102 63.2568C33.0026 63.1315 33.3786 63.048 33.7546 63.048C34.1306 63.048 34.4648 63.1315 34.799 63.2568C35.1332 63.382 35.3838 63.5908 35.5927 63.8413C35.8016 64.0919 35.9687 64.3424 36.094 64.6764C36.2193 65.0104 36.2611 65.3445 36.2611 65.6785C36.2611 66.0125 36.2193 66.3465 36.094 66.6806C35.9687 67.0146 35.8016 67.2651 35.5927 67.5157C35.3838 67.7662 35.0914 67.9332 34.799 68.1002C34.4648 68.2255 34.1306 68.309 33.7128 68.309ZM32.0836 65.7202C32.0836 65.9708 32.1253 66.2213 32.2089 66.4718C32.2924 66.6806 32.4178 66.8894 32.5849 67.0564C32.752 67.2234 32.9191 67.3486 33.1279 67.4321C33.3368 67.5157 33.5457 67.5574 33.7963 67.5574C34.047 67.5574 34.2559 67.5157 34.4648 67.4321C34.6736 67.3486 34.8407 67.2234 35.0078 67.0146C35.1749 66.8476 35.3003 66.6388 35.3838 66.4301C35.4674 66.2213 35.5091 65.9708 35.5091 65.6785C35.5091 65.428 35.4674 65.1775 35.3838 64.9687C35.3003 64.7599 35.1749 64.5511 35.0078 64.3841C34.8407 64.2171 34.6736 64.0919 34.4648 63.9666C34.2559 63.8831 34.047 63.8413 33.7963 63.8413C33.5457 63.8413 33.3368 63.8831 33.1279 64.0083C32.9191 64.0919 32.752 64.2589 32.5849 64.4259C32.4178 64.5929 32.3342 64.8017 32.2089 65.0104C32.1253 65.1774 32.0836 65.428 32.0836 65.7202ZM33.8799 62.3382L33.3368 62.1294L33.8799 61.1691H34.7154L33.8799 62.3382Z" fill="white"/>
<path d="M41.6919 68.2255H40.8564V65.428C40.8564 64.8852 40.7728 64.5094 40.6057 64.2589C40.4386 64.0083 40.188 63.8831 39.8538 63.8831C39.6867 63.8831 39.5196 63.9248 39.3525 63.9666C39.1854 64.0501 39.0183 64.1336 38.8512 64.2589C38.6841 64.3841 38.5587 64.5094 38.4334 64.6764C38.3081 64.8434 38.2245 65.0104 38.1828 65.2192V68.2672H37.3472V63.2568H38.0992V64.3424C38.3081 64.0084 38.6005 63.7161 38.9765 63.5073C39.3525 63.2985 39.7702 63.1733 40.188 63.1733C40.4804 63.1733 40.7311 63.215 40.8982 63.3403C41.107 63.4656 41.2324 63.5908 41.3577 63.7996C41.483 64.0084 41.5666 64.2171 41.6083 64.4676C41.6501 64.7182 41.6919 65.0104 41.6919 65.3027V68.2255Z" fill="white"/>
<path d="M50.4229 67.3069C49.8381 67.9749 49.1279 68.2672 48.3342 68.2672C47.8746 68.2672 47.4569 68.1837 47.0809 67.9749C46.7049 67.7662 46.3707 67.5156 46.0783 67.1816C45.7859 66.8476 45.577 66.4718 45.4099 66.0543C45.2428 65.6367 45.1592 65.2192 45.1592 64.7599C45.1592 64.3006 45.2428 63.8413 45.4099 63.4238C45.577 63.0062 45.7859 62.6305 46.0783 62.3382C46.3707 62.0042 46.7049 61.7536 47.0809 61.5866C47.4569 61.4196 47.9164 61.2943 48.3342 61.2943C49.0026 61.2943 49.5457 61.4196 49.9634 61.7119C50.3812 62.0042 50.7154 62.3382 50.9243 62.7975L50.2558 63.2568C50.047 62.8392 49.7963 62.5469 49.4203 62.3799C49.0861 62.1712 48.7102 62.0877 48.2924 62.0877C47.9582 62.0877 47.624 62.1712 47.3316 62.2964C47.0391 62.4634 46.7885 62.6305 46.6214 62.881C46.4125 63.1315 46.2872 63.4238 46.1619 63.7578C46.0365 64.0918 45.9947 64.4259 45.9947 64.7599C45.9947 65.1357 46.0365 65.4697 46.1619 65.8037C46.2872 66.1378 46.4543 66.43 46.6632 66.6806C46.872 66.9311 47.1227 67.1399 47.4151 67.2651C47.7075 67.3904 48 67.4739 48.376 67.4739C49.1279 67.4739 49.7963 67.0981 50.3812 66.3883V65.428H48.919V64.7599H51.1331V68.1837H50.3812L50.4229 67.3069Z" fill="white"/>
<path d="M54.5587 68.309C54.1827 68.309 53.8485 68.2255 53.5143 68.1002C53.1801 67.9749 52.9295 67.7662 52.7206 67.5156C52.5117 67.2651 52.3029 67.0146 52.1775 66.6806C52.0522 66.3465 52.0104 66.0125 52.0104 65.6785C52.0104 65.3444 52.094 65.0104 52.2193 64.6764C52.3446 64.3424 52.5117 64.0918 52.7624 63.8413C52.9713 63.5908 53.2637 63.4238 53.5979 63.2985C53.9321 63.1733 54.2663 63.0898 54.6423 63.0898C55.0183 63.0898 55.3525 63.1733 55.6867 63.2985C55.9791 63.4238 56.2715 63.6325 56.4804 63.8831C56.6893 64.1336 56.8564 64.3841 56.9817 64.7181C57.107 65.0104 57.1488 65.3444 57.1488 65.6785C57.1488 65.762 57.1488 65.8037 57.1488 65.8872C57.1488 65.929 57.1488 65.9708 57.1488 66.0125H52.9713C52.9713 66.263 53.0548 66.4718 53.1384 66.6806C53.2219 66.8893 53.3472 67.0563 53.5143 67.2234C53.6814 67.3904 53.8485 67.4739 54.0574 67.5574C54.2663 67.6409 54.4752 67.6827 54.684 67.6827C54.8512 67.6827 54.9765 67.6827 55.1436 67.6409C55.3107 67.5991 55.436 67.5574 55.5613 67.4739C55.6867 67.3904 55.812 67.3069 55.8955 67.2234C55.9791 67.1399 56.0626 67.0146 56.1044 66.8893L56.8564 67.0981C56.7728 67.2651 56.6475 67.4739 56.5222 67.5991C56.3968 67.7662 56.2297 67.8914 56.0209 68.0167C55.812 68.1419 55.6031 68.2254 55.3942 68.2672C55.06 68.309 54.8094 68.309 54.5587 68.309ZM56.2715 65.3862C56.2715 65.1357 56.188 64.9269 56.1044 64.7181C56.0209 64.5094 55.8955 64.3424 55.7284 64.2171C55.5613 64.0918 55.3942 63.9666 55.1854 63.8831C54.9765 63.7996 54.7676 63.7578 54.5587 63.7578C54.3498 63.7578 54.141 63.7996 53.9321 63.8831C53.7232 63.9666 53.5561 64.0918 53.389 64.2171C53.2219 64.3424 53.0966 64.5511 53.013 64.7181C52.9295 64.9269 52.8459 65.1357 52.8459 65.3862H56.2715Z" fill="white"/>
<path d="M62.3707 68.2255H61.5352V65.428C61.5352 64.8852 61.4517 64.5094 61.2846 64.2589C61.1175 64.0083 60.8668 63.8831 60.5326 63.8831C60.3655 63.8831 60.1984 63.9248 60.0313 63.9666C59.8642 64.0083 59.6971 64.1336 59.53 64.2589C59.3629 64.3841 59.2376 64.5094 59.1123 64.6764C58.9869 64.8434 58.9034 65.0104 58.8616 65.2192V68.2672H58.0261V63.2568H58.7781V64.3424C58.9869 64.0084 59.2794 63.7161 59.6553 63.5073C60.0313 63.2985 60.4491 63.1733 60.8668 63.1733C61.1593 63.1733 61.4099 63.215 61.577 63.3403C61.7859 63.4656 61.9112 63.5908 62.0365 63.7996C62.1619 64.0084 62.2454 64.2171 62.2872 64.4676C62.329 64.7182 62.3707 65.0104 62.3707 65.3027V68.2255Z" fill="white"/>
<path d="M65.9217 68.3507C65.5457 68.3507 65.2115 68.2672 64.8773 68.1419C64.5431 68.0167 64.2924 67.8079 64.0835 67.5574C63.8747 67.3069 63.6658 67.0563 63.5405 66.7223C63.4151 66.3883 63.3734 66.0543 63.3734 65.7202C63.3734 65.3862 63.4569 65.0522 63.5822 64.7181C63.7076 64.3841 63.8747 64.1336 64.1253 63.8831C64.3342 63.6325 64.6266 63.4655 64.9608 63.3403C65.295 63.215 65.6292 63.1315 66.0052 63.1315C66.3812 63.1315 66.7154 63.215 67.0496 63.3403C67.342 63.4655 67.6345 63.6743 67.8433 63.9248C68.0522 64.1753 68.2193 64.4259 68.3447 64.7599C68.47 65.0522 68.5118 65.3862 68.5118 65.7202C68.5118 65.8037 68.5118 65.8455 68.5118 65.929C68.5118 65.9707 68.5118 66.0125 68.5118 66.0543H64.3342C64.3342 66.3048 64.4178 66.5135 64.5013 66.7223C64.5849 66.9311 64.7102 67.0981 64.8773 67.2651C65.0444 67.4321 65.2115 67.5156 65.4204 67.5991C65.6292 67.6826 65.8381 67.7244 66.047 67.7244C66.2141 67.7244 66.3394 67.7244 66.5065 67.6827C66.6736 67.6409 66.799 67.5991 66.9243 67.5156C67.0496 67.4321 67.1749 67.3486 67.2585 67.2651C67.342 67.1816 67.4256 67.0563 67.4674 66.9311L68.2193 67.1399C68.1358 67.3069 68.0104 67.5156 67.8851 67.6409C67.7598 67.8079 67.5927 67.9332 67.3838 68.0584C67.1749 68.1837 66.9661 68.2672 66.7572 68.309C66.5483 68.3507 66.1723 68.3507 65.9217 68.3507ZM67.6762 65.3862C67.6762 65.1357 67.5927 64.9269 67.5091 64.7181C67.4256 64.5094 67.3003 64.3424 67.1332 64.2171C66.9661 64.0918 66.799 63.9666 66.5901 63.8831C66.3812 63.7996 66.1723 63.7578 65.9634 63.7578C65.7546 63.7578 65.5457 63.7996 65.3368 63.8831C65.1279 63.9666 64.9608 64.0918 64.7937 64.2171C64.6266 64.3424 64.5013 64.5511 64.4178 64.7181C64.3342 64.9269 64.2507 65.1357 64.2507 65.3862H67.6762Z" fill="white"/>
<path d="M72.0626 63.9666C71.6449 63.9666 71.2689 64.0919 70.9347 64.3006C70.6005 64.5094 70.3916 64.8017 70.2245 65.1775V68.2672H69.389V63.2568H70.1828V64.4259C70.3499 64.0919 70.6005 63.7996 70.8512 63.5908C71.1436 63.382 71.436 63.2568 71.7702 63.215C71.8538 63.215 71.8955 63.215 71.9373 63.215C71.9791 63.215 72.0209 63.215 72.0626 63.215V63.9666Z" fill="white"/>
<path d="M74.1932 68.3507C73.9426 68.3507 73.7337 68.309 73.5248 68.2254C73.3159 68.1419 73.1488 68.0167 72.9817 67.8914C72.8146 67.7662 72.7311 67.5991 72.6057 67.3904C72.5222 67.1816 72.4804 66.9728 72.4804 66.7641C72.4804 66.5135 72.5222 66.3048 72.6475 66.1378C72.7311 65.929 72.8982 65.8037 73.107 65.6367C73.3159 65.5115 73.5248 65.3862 73.7755 65.3027C74.0261 65.2192 74.3185 65.1774 74.611 65.1774C74.8616 65.1774 75.1123 65.2192 75.3629 65.2609C75.6136 65.3027 75.8225 65.3862 76.0313 65.428V65.0104C76.0313 64.5929 75.906 64.2588 75.6971 64.0501C75.4465 63.7996 75.154 63.7161 74.6945 63.7161C74.1932 63.7161 73.6501 63.9248 73.107 64.3006L72.8146 63.7578C73.483 63.3403 74.1097 63.0898 74.7781 63.0898C75.4465 63.0898 75.9478 63.2568 76.3238 63.6325C76.6997 63.9666 76.8668 64.4676 76.8668 65.1357V67.1816C76.8668 67.3904 76.9504 67.4739 77.1175 67.4739V68.2254C77.0339 68.2254 76.9504 68.2672 76.9086 68.2672C76.8668 68.2672 76.7833 68.2672 76.7415 68.2672C76.5744 68.2672 76.4491 68.2255 76.3238 68.1002C76.2402 68.0167 76.1567 67.8914 76.1567 67.7244V67.3486C75.9478 67.6409 75.6554 67.8914 75.3211 68.0167C74.9452 68.2672 74.611 68.3507 74.1932 68.3507ZM74.4021 67.7244C74.6945 67.7244 74.9869 67.6827 75.2376 67.5574C75.4883 67.4321 75.6971 67.3069 75.8225 67.0981C75.9478 66.9728 75.9896 66.8476 75.9896 66.7223V65.9708C75.5718 65.8037 75.154 65.7202 74.6945 65.7202C74.2768 65.7202 73.9426 65.8037 73.6501 65.9708C73.3995 66.1378 73.2324 66.3883 73.2324 66.6806C73.2324 66.8058 73.2741 66.9728 73.3159 67.0563C73.3577 67.1816 73.4413 67.2651 73.5666 67.3904C73.6501 67.4739 73.7755 67.5574 73.9008 67.5991C74.1097 67.6826 74.2768 67.7244 74.4021 67.7244Z" fill="white"/>
<path d="M78.2872 61.2108H79.1227V66.9311C79.1227 67.0981 79.1645 67.2651 79.2898 67.3904C79.3734 67.5156 79.5405 67.5574 79.7076 67.5574C79.7911 67.5574 79.8747 67.5574 79.9582 67.5156C80.0418 67.4739 80.1253 67.4739 80.2089 67.4321L80.3342 68.1002C80.2089 68.142 80.0418 68.2255 79.8329 68.2255C79.624 68.2672 79.4569 68.2672 79.3316 68.2672C78.9974 68.2672 78.7467 68.1837 78.5378 67.9749C78.329 67.8079 78.2454 67.5156 78.2454 67.1816L78.2872 61.2108Z" fill="white"/>
<path d="M0.0834961 76.2422C0.0834961 75.8246 0.167047 75.4071 0.292373 74.9896C0.459475 74.572 0.668352 74.238 0.960781 73.904C1.25321 73.5699 1.58741 73.3194 2.00517 73.1106C2.42292 72.9019 2.88245 72.8184 3.42553 72.8184C4.05216 72.8184 4.59525 72.9436 5.05478 73.2359C5.51431 73.5282 5.84851 73.8622 6.09916 74.3215L5.09655 75.0313C5.013 74.8225 4.88767 74.6555 4.76235 74.5303C4.63702 74.405 4.51169 74.2797 4.34459 74.1962C4.17749 74.1127 4.05216 74.071 3.88506 74.0292C3.71796 73.9875 3.55086 73.9875 3.42553 73.9875C3.09133 73.9875 2.7989 74.071 2.54825 74.1962C2.2976 74.3215 2.08872 74.4885 1.92162 74.739C1.75451 74.9478 1.62919 75.1983 1.54564 75.4906C1.46209 75.7829 1.42031 76.0334 1.42031 76.3257C1.42031 76.6179 1.46209 76.9102 1.54564 77.2025C1.62919 77.4948 1.79629 77.7453 1.96339 77.9541C2.13049 78.1628 2.33937 78.3298 2.59002 78.4551C2.84068 78.5804 3.09133 78.6639 3.38376 78.6639C3.55086 78.6639 3.71796 78.6639 3.88506 78.6221C4.05216 78.5804 4.21927 78.5386 4.34459 78.4551C4.51169 78.3716 4.63702 78.2463 4.76235 78.1211C4.88767 77.9958 5.013 77.8288 5.05478 77.6618L6.14094 78.2881C6.01561 78.5386 5.89028 78.7891 5.68141 78.9562C5.47253 79.1649 5.26365 79.3319 5.013 79.4572C4.76235 79.5825 4.46992 79.7077 4.17749 79.7495C3.88506 79.833 3.59263 79.8747 3.34198 79.8747C2.84068 79.8747 2.42292 79.7912 2.00517 79.5825C1.58741 79.3737 1.25321 79.1232 0.960781 78.7891C0.668352 78.4551 0.459475 78.0793 0.292373 77.6618C0.167047 77.119 0.0834961 76.7015 0.0834961 76.2422Z" fill="white"/>
<path d="M9.31592 79.833C8.89816 79.833 8.52218 79.7495 8.18798 79.6242C7.85378 79.4989 7.60312 79.2902 7.35247 79.0397C7.10182 78.7891 6.93472 78.5386 6.80939 78.2046C6.68406 77.8706 6.64229 77.5783 6.64229 77.2025C6.64229 76.8685 6.68406 76.5344 6.80939 76.2004C6.93472 75.8664 7.10182 75.6159 7.35247 75.3653C7.56135 75.1148 7.85378 74.9478 8.18798 74.7808C8.52218 74.6555 8.89816 74.572 9.31592 74.572C9.73367 74.572 10.1097 74.6555 10.4021 74.7808C10.7363 74.9061 10.9869 75.1148 11.2376 75.3653C11.4465 75.6159 11.6553 75.8664 11.7807 76.2004C11.906 76.5344 11.9478 76.8685 11.9478 77.2025C11.9478 77.5365 11.906 77.8706 11.7807 78.2046C11.6553 78.5386 11.4882 78.7891 11.2794 79.0397C11.0705 79.2902 10.7781 79.4572 10.4439 79.6242C10.1097 79.7495 9.73367 79.833 9.31592 79.833ZM7.9791 77.2025C7.9791 77.4113 8.02088 77.62 8.06265 77.8288C8.1462 77.9958 8.22976 78.1628 8.35508 78.2881C8.48041 78.4134 8.60573 78.5386 8.77284 78.6221C8.93994 78.7056 9.10704 78.7474 9.27414 78.7474C9.44124 78.7474 9.65012 78.7056 9.77545 78.6221C9.90077 78.5386 10.0679 78.4551 10.1932 78.3299C10.3185 78.2046 10.4021 78.0376 10.4856 77.8288C10.5692 77.6618 10.5692 77.453 10.5692 77.2025C10.5692 76.9937 10.5274 76.785 10.4856 76.5762C10.4021 76.4092 10.3185 76.2422 10.1932 76.0751C10.0679 75.9499 9.94255 75.8246 9.77545 75.7411C9.60835 75.6576 9.44124 75.6159 9.27414 75.6159C9.10704 75.6159 8.89816 75.6576 8.77284 75.7411C8.60573 75.8246 8.48041 75.9081 8.35508 76.0751C8.22976 76.2004 8.1462 76.3674 8.06265 76.5762C7.9791 76.785 7.9791 76.9937 7.9791 77.2025Z" fill="white"/>
<path d="M17.5039 79.7495H16.2089V76.9102C16.2089 76.4927 16.1253 76.2004 16 76.0334C15.8747 75.8664 15.6658 75.7411 15.4152 75.7411C15.2898 75.7411 15.1645 75.7829 15.0392 75.8246C14.9138 75.8664 14.7885 75.9499 14.6632 76.0334C14.5379 76.1169 14.4543 76.2422 14.329 76.3674C14.2454 76.4927 14.1619 76.6179 14.1201 76.785V79.7495H12.8251V74.6973H13.9948V75.6159C14.1619 75.2818 14.4543 75.0313 14.7885 74.8643C15.1227 74.6973 15.5405 74.6138 16 74.6138C16.3342 74.6138 16.5849 74.6555 16.752 74.7808C16.9608 74.906 17.0862 75.0313 17.2115 75.2401C17.3368 75.4071 17.3786 75.6576 17.4204 75.8664C17.4621 76.1169 17.4621 76.3257 17.4621 76.5762L17.5039 79.7495Z" fill="white"/>
<path d="M21.6397 79.499C21.4726 79.5825 21.2637 79.666 21.013 79.7495C20.7624 79.833 20.5117 79.8747 20.2193 79.8747C20.0522 79.8747 19.8851 79.833 19.718 79.7912C19.5509 79.7495 19.4256 79.666 19.3002 79.5825C19.1749 79.499 19.0914 79.3737 19.0078 79.2067C18.9243 79.0397 18.8825 78.8727 18.8825 78.6221V75.7411H18.2141V74.739H18.8825V73.1107H20.1775V74.739H21.2219V75.7411H20.1775V78.2046C20.1775 78.3716 20.2193 78.4969 20.3029 78.5804C20.3864 78.6639 20.5117 78.7056 20.6371 78.7056C20.7624 78.7056 20.8877 78.6639 21.013 78.6221C21.1384 78.5804 21.2637 78.5386 21.3055 78.4969L21.6397 79.499Z" fill="white"/>
<path d="M25.3159 75.8246C24.9399 75.8246 24.5639 75.9081 24.2715 76.0334C23.9791 76.1587 23.7284 76.4092 23.6031 76.7015V79.7495H22.3081V74.6973H23.4778V75.7829C23.5613 75.6159 23.6867 75.4488 23.812 75.3236C23.9373 75.1983 24.0626 75.0731 24.188 74.9478C24.3133 74.8643 24.4804 74.7808 24.6057 74.6973C24.7311 74.6555 24.8982 74.6138 25.0235 74.6138C25.107 74.6138 25.1488 74.6138 25.1906 74.6138C25.2324 74.6138 25.2741 74.6138 25.2741 74.6138L25.3159 75.8246Z" fill="white"/>
<path d="M27.3629 79.833C27.1123 79.833 26.9034 79.7912 26.6945 79.7077C26.4856 79.6242 26.3185 79.499 26.1514 79.3737C25.9843 79.2484 25.859 79.0397 25.7754 78.8726C25.6919 78.6639 25.6501 78.4551 25.6501 78.2463C25.6501 77.9958 25.6919 77.787 25.8172 77.5783C25.9425 77.3695 26.0679 77.2025 26.2767 77.0772C26.4856 76.952 26.6945 76.8267 26.9452 76.7432C27.1958 76.6597 27.4882 76.6179 27.8224 76.6179C28.0313 76.6179 28.282 76.6179 28.4908 76.6597C28.6997 76.7015 28.9086 76.7432 29.0757 76.8267V76.5344C29.0757 76.2004 28.9922 75.9499 28.7833 75.7829C28.5744 75.6159 28.3237 75.5323 27.9478 75.5323C27.6971 75.5323 27.4047 75.5741 27.154 75.6576C26.9034 75.7411 26.6527 75.9081 26.3603 76.0751L25.9843 75.2401C26.6527 74.8225 27.3211 74.6138 28.0731 74.6138C28.7833 74.6138 29.3681 74.7808 29.7441 75.1566C30.1619 75.5324 30.329 76.0334 30.329 76.7015V78.2881C30.329 78.4134 30.3707 78.5386 30.4125 78.5804C30.4543 78.6221 30.5378 78.6639 30.6632 78.6639V79.7495C30.4543 79.7912 30.2454 79.833 30.0783 79.833C29.8277 79.833 29.6606 79.7912 29.5352 79.666C29.4099 79.5407 29.3264 79.4154 29.2846 79.2484L29.2428 78.9562C29.0339 79.2484 28.7415 79.4572 28.4073 79.6242C28.0731 79.7912 27.6971 79.833 27.3629 79.833ZM27.6971 78.9144C27.906 78.9144 28.1149 78.8726 28.3237 78.7891C28.5326 78.7056 28.6579 78.6221 28.7833 78.4969C28.9086 78.3716 28.9922 78.2463 28.9922 78.1211V77.5365C28.8251 77.4948 28.6579 77.4113 28.4908 77.4113C28.3237 77.3695 28.1566 77.3695 27.9895 77.3695C27.6553 77.3695 27.3629 77.453 27.154 77.5783C26.9452 77.7453 26.8198 77.9123 26.8198 78.1628C26.8198 78.3716 26.9034 78.5804 27.0705 78.7056C27.2794 78.8309 27.4465 78.9144 27.6971 78.9144Z" fill="white"/>
<path d="M34.5065 79.499C34.3394 79.5825 34.1305 79.666 33.8799 79.7495C33.6292 79.833 33.3786 79.8747 33.0862 79.8747C32.9191 79.8747 32.752 79.833 32.5848 79.7912C32.4177 79.7495 32.2924 79.666 32.1671 79.5825C32.0418 79.499 31.9582 79.3737 31.8747 79.2067C31.7911 79.0397 31.7493 78.8727 31.7493 78.6221V75.7411H31.0809V74.739H31.7493V73.1107H33.0444V74.739H34.0888V75.7411H33.0444V78.2046C33.0444 78.3716 33.0862 78.4969 33.1697 78.5804C33.2533 78.6639 33.3786 78.7056 33.5039 78.7056C33.6292 78.7056 33.7546 78.6639 33.8799 78.6221C34.0052 78.5804 34.1305 78.5386 34.1723 78.4969L34.5065 79.499Z" fill="white"/>
<path d="M36.5535 79.8748C36.3029 79.8748 36.094 79.833 35.8851 79.7495C35.6763 79.666 35.5092 79.5407 35.342 79.4155C35.1749 79.2902 35.0496 79.0814 34.9661 78.9144C34.8825 78.7057 34.8407 78.4969 34.8407 78.2881C34.8407 78.0376 34.8825 77.8288 35.0078 77.6201C35.1332 77.4113 35.2585 77.2443 35.4674 77.119C35.6763 76.9937 35.8851 76.8685 36.1358 76.785C36.3864 76.7015 36.6789 76.6597 37.0131 76.6597C37.2219 76.6597 37.4726 76.6597 37.6815 76.7015C37.8904 76.7432 38.0992 76.785 38.2663 76.8685V76.5762C38.2663 76.2422 38.1828 75.9917 37.9739 75.8247C37.765 75.6576 37.5144 75.5741 37.1384 75.5741C36.8877 75.5741 36.5953 75.6159 36.3447 75.6994C36.094 75.7829 35.8434 75.9499 35.5509 76.1169L35.1749 75.2819C35.8434 74.8643 36.5118 74.6555 37.2637 74.6555C37.9739 74.6555 38.5588 74.8226 38.9347 75.1983C39.3525 75.5741 39.5196 76.0752 39.5196 76.7432V78.3299C39.5196 78.4551 39.5614 78.5804 39.6031 78.6221C39.6449 78.6639 39.7285 78.7057 39.8538 78.7057V79.7912C39.6449 79.833 39.436 79.8748 39.2689 79.8748C39.0183 79.8748 38.8512 79.833 38.7259 79.7077C38.6005 79.5825 38.517 79.4572 38.4752 79.2902L38.4334 78.9979C38.2246 79.2902 37.9321 79.499 37.5979 79.666C37.2637 79.7912 36.8877 79.8748 36.5535 79.8748ZM36.9295 78.9144C37.1384 78.9144 37.3473 78.8727 37.5561 78.7892C37.765 78.7056 37.8904 78.6221 38.0157 78.4969C38.141 78.3716 38.2246 78.2464 38.2246 78.1211V77.5365C38.0575 77.4948 37.8904 77.4113 37.7233 77.4113C37.5561 77.3695 37.389 77.3695 37.2219 77.3695C36.8877 77.3695 36.5953 77.453 36.3864 77.5783C36.1776 77.7453 36.0522 77.9123 36.0522 78.1629C36.0522 78.3716 36.1358 78.5804 36.3029 78.7057C36.47 78.8309 36.6789 78.9144 36.9295 78.9144Z" fill="white"/>
<path d="M40.3969 77.2443C40.3969 76.9102 40.4386 76.5762 40.564 76.2422C40.6893 75.9081 40.8564 75.6576 41.1071 75.4071C41.3577 75.1566 41.6084 74.9896 41.9426 74.8225C42.2768 74.6973 42.6527 74.6138 43.0705 74.6138C43.6136 74.6138 44.0731 74.739 44.4909 74.9896C44.8668 75.2401 45.1593 75.5324 45.3681 75.9081L44.1149 76.2839C43.9896 76.1169 43.8642 75.9499 43.6971 75.8664C43.53 75.7829 43.3211 75.6994 43.1123 75.6994C42.9452 75.6994 42.7363 75.7411 42.611 75.8246C42.4439 75.9081 42.3185 75.9916 42.1932 76.1169C42.0679 76.2422 41.9843 76.4092 41.9008 76.5762C41.8172 76.7432 41.8172 76.952 41.8172 77.2025C41.8172 77.4113 41.859 77.62 41.9426 77.8288C42.0261 77.9958 42.1097 78.1628 42.235 78.3298C42.3603 78.4551 42.4856 78.5804 42.6527 78.6639C42.8198 78.7474 42.9869 78.7891 43.154 78.7891C43.4047 78.7891 43.6136 78.7474 43.7807 78.6221C43.9896 78.4969 44.1149 78.3716 44.1984 78.2046L45.4517 78.5804C45.2846 78.9561 44.9922 79.2902 44.5744 79.5407C44.1567 79.7912 43.6971 79.9165 43.154 79.9165C42.7363 79.9165 42.3603 79.833 42.0261 79.7077C41.6919 79.5825 41.3995 79.3737 41.1906 79.1232C40.9399 78.8726 40.7728 78.6221 40.6475 78.2881C40.4386 77.9123 40.3969 77.5783 40.3969 77.2443Z" fill="white"/>
<path d="M46.1618 74.0292V72.7349H47.4562V74.0292H46.1618ZM46.1201 79.7912V74.739H47.4144V79.7912H46.1201Z" fill="white"/>
<path d="M50.9243 79.8747C50.5065 79.8747 50.1306 79.7912 49.7963 79.666C49.4621 79.5407 49.2115 79.3319 48.9608 79.0814C48.752 78.8309 48.5431 78.5804 48.4178 78.2463C48.2924 77.9123 48.2507 77.62 48.2507 77.2443C48.2507 76.9102 48.2924 76.5762 48.4178 76.2422C48.5431 75.9081 48.7102 75.6576 48.9608 75.4071C49.1697 75.1566 49.4621 74.9896 49.7963 74.8225C50.1306 74.6973 50.5065 74.6138 50.9243 74.6138C51.342 74.6138 51.718 74.6973 52.0104 74.8225C52.3447 74.9478 52.5953 75.1566 52.846 75.4071C53.0548 75.6576 53.2637 75.9081 53.389 76.2422C53.5144 76.5762 53.5561 76.9102 53.5561 77.2443C53.5561 77.5783 53.5144 77.9123 53.389 78.2463C53.2637 78.5804 53.0966 78.8309 52.8877 79.0814C52.6789 79.3319 52.3864 79.4989 52.0522 79.666C51.718 79.833 51.342 79.8747 50.9243 79.8747ZM49.6292 77.286C49.6292 77.4948 49.671 77.7035 49.7128 77.9123C49.7963 78.0793 49.8799 78.2463 50.0052 78.3716C50.1306 78.4969 50.2559 78.6221 50.423 78.7056C50.5901 78.7891 50.7572 78.8309 50.9243 78.8309C51.0914 78.8309 51.3003 78.7891 51.4256 78.7056C51.5927 78.6221 51.718 78.5386 51.8433 78.4134C51.9687 78.2881 52.0522 78.1211 52.1358 77.9123C52.2193 77.7035 52.2193 77.5365 52.2193 77.286C52.2193 77.0772 52.1776 76.8685 52.1358 76.6597C52.0522 76.4927 51.9687 76.3257 51.8433 76.1587C51.718 76.0334 51.5927 75.9081 51.4256 75.8246C51.2585 75.7411 51.0914 75.6994 50.9243 75.6994C50.7572 75.6994 50.5483 75.7411 50.423 75.8246C50.2559 75.9081 50.1306 75.9916 50.0052 76.1587C49.8799 76.2839 49.7963 76.4509 49.7128 76.6597C49.6292 76.8685 49.6292 77.0355 49.6292 77.286Z" fill="white"/>
<path d="M59.154 79.7912H57.859V76.952C57.859 76.5345 57.7755 76.2422 57.6501 76.0752C57.5248 75.9082 57.3159 75.7829 57.0653 75.7829C56.9399 75.7829 56.8146 75.8246 56.6893 75.8664C56.564 75.9082 56.4386 75.9917 56.3133 76.0752C56.188 76.1587 56.1044 76.2839 55.9791 76.4092C55.8956 76.5345 55.812 76.6597 55.7702 76.8267V79.7912H54.4752V74.7391H55.6449V75.6576C55.812 75.3236 56.1044 75.0731 56.4386 74.9061C56.7728 74.7391 57.1906 74.6555 57.6501 74.6555C57.9843 74.6555 58.235 74.6973 58.4021 74.8226C58.611 74.9478 58.7363 75.0731 58.8616 75.2819C58.9869 75.4489 59.0287 75.6994 59.0705 75.9082C59.1123 76.1587 59.1123 76.3674 59.1123 76.618L59.154 79.7912Z" fill="white"/>
<path d="M62.6214 79.9165C62.2037 79.9165 61.8695 79.833 61.5353 79.7077C61.201 79.5825 60.9086 79.3737 60.6997 79.1232C60.4491 78.8727 60.282 78.6221 60.1567 78.2881C60.0313 77.9541 59.9896 77.6618 59.9896 77.286C59.9896 76.9102 60.0313 76.5762 60.1567 76.2839C60.282 75.9499 60.4491 75.6994 60.6997 75.4489C60.9504 75.1983 61.201 75.0313 61.5353 74.8643C61.8695 74.7391 62.2454 74.6555 62.6632 74.6555C63.0809 74.6555 63.4569 74.7391 63.7494 74.8643C64.0418 74.9896 64.3342 75.1983 64.5849 75.4489C64.7937 75.6994 65.0026 75.9499 65.0862 76.2839C65.2115 76.618 65.2533 76.9102 65.2533 77.286C65.2533 77.3695 65.2533 77.453 65.2533 77.5365C65.2533 77.6201 65.2533 77.6618 65.2115 77.7453H61.3264C61.3264 77.9541 61.4099 78.1211 61.4517 78.2881C61.5353 78.4551 61.6188 78.5804 61.7441 78.6639C61.8695 78.7892 61.9948 78.8727 62.1619 78.9144C62.329 78.9562 62.4961 78.9979 62.6632 78.9979C62.9138 78.9979 63.1645 78.9562 63.3734 78.8309C63.5822 78.7057 63.7494 78.5386 63.8329 78.3299L64.9608 78.6221C64.7937 78.9979 64.4595 79.332 64.0836 79.5825C63.6658 79.7912 63.1645 79.9165 62.6214 79.9165ZM63.9165 76.8685C63.8747 76.4927 63.7494 76.2004 63.4987 75.9499C63.248 75.7411 62.9556 75.6159 62.5796 75.6159C62.4125 75.6159 62.2454 75.6576 62.0783 75.6994C61.9112 75.7411 61.7859 75.8246 61.6606 75.9499C61.5353 76.0752 61.4517 76.2004 61.3681 76.3257C61.2846 76.4927 61.2428 76.6597 61.2428 76.8267L63.9165 76.8685Z" fill="white"/>
<path d="M67.9269 79.9165C67.5091 79.9165 67.0914 79.833 66.6736 79.7077C66.2559 79.5825 65.9217 79.3737 65.6292 79.1232L66.1305 78.3299C66.423 78.5386 66.7572 78.7057 67.0496 78.8309C67.342 78.9562 67.6345 78.9979 67.9269 78.9979C68.1775 78.9979 68.3864 78.9562 68.5535 78.8727C68.7206 78.7892 68.7624 78.6221 68.7624 78.4551C68.7624 78.2881 68.6788 78.1629 68.5117 78.0793C68.3446 77.9958 68.0522 77.9123 67.6762 77.7871C67.342 77.7036 67.0496 77.6201 66.8407 77.5365C66.5901 77.453 66.423 77.3695 66.2976 77.2443C66.1723 77.119 66.047 77.0355 66.0052 76.8685C65.9217 76.7432 65.9217 76.5762 65.9217 76.3674C65.9217 76.1169 65.9634 75.8664 66.0888 75.6576C66.1723 75.4489 66.3394 75.2818 66.5065 75.1148C66.6736 74.9896 66.8825 74.8643 67.1332 74.7808C67.3838 74.6973 67.6345 74.6555 67.9269 74.6555C68.3029 74.6555 68.6788 74.6973 69.0131 74.8226C69.3473 74.9478 69.6397 75.1148 69.9321 75.3654L69.4308 76.1587C69.1802 75.9499 68.9295 75.8246 68.6788 75.7411C68.4282 75.6576 68.1775 75.6159 67.9687 75.6159C67.7598 75.6159 67.5509 75.6576 67.4256 75.7411C67.2585 75.8246 67.2167 75.9917 67.2167 76.1587C67.2167 76.2422 67.2167 76.3257 67.2585 76.3674C67.3003 76.4092 67.342 76.4927 67.4256 76.5345C67.5091 76.5762 67.5927 76.618 67.718 76.6597C67.8433 76.7015 68.0104 76.7432 68.1775 76.785C68.5117 76.8685 68.8042 76.952 69.0548 77.0355C69.3055 77.119 69.5144 77.2443 69.6815 77.3278C69.8486 77.453 69.9739 77.5783 70.0157 77.7453C70.0992 77.9123 70.141 78.0793 70.141 78.2881C70.141 78.7892 69.9739 79.1649 69.5979 79.4572C69.0548 79.7495 68.5953 79.9165 67.9269 79.9165Z" fill="white"/>
<path d="M73.2741 79.833V72.9854H76.1566C76.4909 72.9854 76.7415 73.0689 77.0339 73.1942C77.2846 73.3194 77.5352 73.4864 77.7023 73.6952C77.9112 73.904 78.0365 74.1545 78.1619 74.4468C78.2872 74.739 78.329 74.9896 78.329 75.2818C78.329 75.5741 78.2872 75.8664 78.1619 76.1169C78.0783 76.4092 77.9112 76.6179 77.7441 76.8267C77.577 77.0355 77.3264 77.2025 77.0757 77.3278C76.8251 77.453 76.5326 77.5365 76.1984 77.5365H74.5692V79.833H73.2741ZM74.611 76.3674H76.1566C76.4073 76.3674 76.6162 76.2839 76.7833 76.0751C76.9504 75.8664 77.0339 75.6159 77.0339 75.2818C77.0339 75.1148 76.9922 74.9478 76.9504 74.8225C76.9086 74.6973 76.8251 74.572 76.7415 74.4885C76.658 74.405 76.5744 74.3215 76.4491 74.2797C76.3238 74.238 76.2402 74.1962 76.1149 74.1962H74.611V76.3674Z" fill="white"/>
<path d="M80.7102 79.9165C80.2089 79.9165 79.7911 79.7495 79.5405 79.4154C79.2898 79.0814 79.1227 78.5804 79.1227 77.9123V74.739H80.4178V77.62C80.4178 78.4133 80.7102 78.7891 81.2533 78.7891C81.5039 78.7891 81.7546 78.7056 81.9634 78.5804C82.2141 78.4133 82.3812 78.2046 82.5483 77.9123V74.7808H83.8433V78.3298C83.8433 78.4551 83.8851 78.5804 83.9269 78.6221C83.9687 78.6639 84.0522 78.7056 84.1775 78.7056V79.7912C84.0522 79.833 83.9269 79.833 83.8433 79.833C83.7598 79.833 83.6762 79.833 83.5927 79.833C83.342 79.833 83.1749 79.7912 83.0496 79.666C82.9243 79.5407 82.8407 79.4154 82.799 79.2067L82.7572 78.7891C82.5483 79.1232 82.2559 79.4154 81.8799 79.5825C81.5039 79.7495 81.1279 79.9165 80.7102 79.9165ZM81.7963 74.1962L80.9608 73.9457L81.5039 72.8184H82.7154L81.7963 74.1962Z" fill="white"/>
<path d="M87.9791 79.9165C87.6031 79.9165 87.2689 79.833 86.9347 79.666C86.6423 79.4989 86.3916 79.2484 86.2245 78.9562V79.833H85.0966V72.8184H86.3916V75.6994C86.5587 75.4071 86.8094 75.1566 87.1018 74.9896C87.3942 74.8225 87.7284 74.739 88.1462 74.739C88.4804 74.739 88.7728 74.8225 89.0235 74.9478C89.2741 75.0731 89.5248 75.2818 89.7337 75.5323C89.9425 75.7829 90.0679 76.0334 90.1932 76.3674C90.3185 76.7014 90.3603 77.0355 90.3603 77.3695C90.3603 77.7453 90.3185 78.0793 90.1932 78.3716C90.0679 78.7056 89.9008 78.9561 89.6919 79.2067C89.483 79.4572 89.2324 79.6242 88.9399 79.7495C88.6475 79.8747 88.3133 79.9165 87.9791 79.9165ZM87.6449 78.8309C87.8538 78.8309 88.0209 78.7891 88.2297 78.7056C88.3968 78.6221 88.564 78.5386 88.6893 78.3716C88.8146 78.2463 88.8982 78.0793 88.9817 77.9123C89.0653 77.7453 89.0653 77.5365 89.0653 77.3278C89.0653 77.119 89.0235 76.9102 88.9817 76.7432C88.8982 76.5762 88.8146 76.4092 88.6893 76.2422C88.564 76.1169 88.4386 75.9916 88.2715 75.9081C88.1044 75.8246 87.9373 75.7829 87.7284 75.7829C87.436 75.7829 87.1854 75.8664 86.9347 76.0751C86.7258 76.2839 86.517 76.4927 86.3916 76.785V77.9958C86.4334 78.1211 86.517 78.2463 86.6005 78.3298C86.6841 78.4134 86.7676 78.5386 86.8929 78.5804C87.0183 78.6639 87.1018 78.7056 87.2689 78.7474C87.3942 78.8309 87.5196 78.8309 87.6449 78.8309Z" fill="white"/>
<path d="M91.2376 72.8184H92.5326V78.2463C92.5326 78.4133 92.5744 78.5804 92.6579 78.6639C92.7415 78.7474 92.8668 78.8309 93.0339 78.8309C93.1175 78.8309 93.201 78.8309 93.2846 78.7891C93.3681 78.7474 93.4517 78.7474 93.5352 78.7056L93.7023 79.7077C93.5352 79.7912 93.3264 79.8747 93.0757 79.9165C92.8251 79.9582 92.6162 80 92.4491 80C92.0313 80 91.7389 79.8747 91.53 79.666C91.3211 79.4572 91.1958 79.1232 91.1958 78.7474L91.2376 72.8184Z" fill="white"/>
<path d="M94.2872 74.1127V72.8184H95.5816V74.1127H94.2872ZM94.2872 79.833V74.7808H95.5816V79.833H94.2872Z" fill="white"/>
<path d="M96.4177 77.3278C96.4177 76.9937 96.4595 76.6597 96.5848 76.3257C96.7102 75.9917 96.8773 75.7411 97.1279 75.4906C97.3786 75.2401 97.6292 75.0731 97.9634 74.9061C98.2976 74.7808 98.6736 74.6973 99.0914 74.6973C99.6345 74.6973 100.094 74.8226 100.512 75.0731C100.929 75.3236 101.18 75.6159 101.389 75.9917L100.136 76.3674C100.01 76.2004 99.8851 76.0334 99.718 75.9499C99.5509 75.8664 99.342 75.7829 99.1332 75.7829C98.9661 75.7829 98.7572 75.8246 98.6318 75.9082C98.4647 75.9917 98.3394 76.0752 98.2141 76.2004C98.0888 76.3257 98.0052 76.4927 97.9217 76.6597C97.8381 76.8267 97.8381 77.0355 97.8381 77.286C97.8381 77.4948 97.8799 77.7036 97.9634 77.9123C98.047 78.0793 98.1305 78.2464 98.2559 78.4134C98.3812 78.5386 98.5065 78.6639 98.6736 78.7474C98.8407 78.8309 99.0078 78.8727 99.1749 78.8727C99.4256 78.8727 99.6345 78.8309 99.8016 78.7056C100.01 78.5804 100.136 78.4551 100.219 78.2881L101.473 78.6639C101.305 79.0397 101.013 79.3737 100.595 79.6242C100.178 79.8748 99.718 80 99.1749 80C98.7572 80 98.3812 79.9165 98.047 79.7912C97.7128 79.666 97.4204 79.4572 97.2115 79.2067C96.9608 78.9562 96.7937 78.7056 96.6684 78.3716C96.5013 77.9958 96.4177 77.6618 96.4177 77.3278Z" fill="white"/>
<path d="M103.561 79.9583C103.311 79.9583 103.102 79.9165 102.893 79.833C102.684 79.7495 102.517 79.6242 102.35 79.499C102.183 79.3737 102.057 79.1649 101.974 78.9979C101.89 78.7891 101.849 78.5804 101.849 78.3716C101.849 78.1211 101.89 77.9123 102.016 77.7036C102.141 77.4948 102.266 77.3278 102.475 77.2025C102.684 77.0772 102.893 76.952 103.144 76.8685C103.394 76.785 103.687 76.7432 104.021 76.7432C104.23 76.7432 104.48 76.7432 104.689 76.785C104.898 76.8267 105.107 76.8685 105.274 76.952V76.6597C105.274 76.3257 105.191 76.0752 104.982 75.9081C104.773 75.7411 104.522 75.6576 104.146 75.6576C103.896 75.6576 103.603 75.6994 103.352 75.7829C103.102 75.8664 102.851 76.0334 102.559 76.2004L102.183 75.3653C102.851 74.9478 103.52 74.739 104.272 74.739C104.982 74.739 105.567 74.9061 105.943 75.2818C106.36 75.6576 106.527 76.1587 106.527 76.8267V78.4134C106.527 78.5386 106.569 78.6639 106.611 78.7056C106.653 78.7474 106.736 78.7891 106.862 78.7891V79.8747C106.653 79.9165 106.444 79.9583 106.277 79.9583C106.026 79.9583 105.859 79.9165 105.734 79.7912C105.608 79.666 105.525 79.5407 105.483 79.3737L105.441 79.0814C105.232 79.3737 104.94 79.5825 104.606 79.7495C104.272 79.8747 103.937 79.9583 103.561 79.9583ZM103.937 78.9979C104.146 78.9979 104.355 78.9562 104.564 78.8727C104.773 78.7891 104.898 78.7056 105.023 78.5804C105.149 78.4551 105.232 78.3299 105.232 78.2046V77.62C105.065 77.5783 104.898 77.4948 104.731 77.4948C104.564 77.453 104.397 77.453 104.23 77.453C103.896 77.453 103.603 77.5365 103.394 77.6618C103.185 77.8288 103.06 77.9958 103.06 78.2463C103.06 78.4551 103.144 78.6639 103.311 78.7891C103.478 78.9562 103.687 78.9979 103.937 78.9979Z" fill="white"/>
<path d="M109.619 79.9583C109.201 79.9583 108.783 79.8748 108.366 79.7495C107.948 79.6242 107.614 79.4155 107.321 79.1649L107.822 78.3716C108.115 78.5804 108.449 78.7474 108.741 78.8727C109.034 78.9979 109.326 79.0397 109.619 79.0397C109.869 79.0397 110.078 78.9979 110.245 78.9144C110.413 78.8309 110.454 78.6639 110.454 78.4969C110.454 78.3299 110.371 78.2046 110.204 78.1211C110.037 78.0376 109.744 77.9541 109.368 77.8288C109.034 77.7453 108.741 77.6618 108.533 77.5783C108.282 77.4948 108.115 77.4113 107.99 77.286C107.864 77.1608 107.739 77.0773 107.697 76.9102C107.614 76.785 107.614 76.618 107.614 76.4092C107.614 76.1587 107.655 75.9082 107.781 75.6994C107.864 75.4906 108.031 75.3236 108.198 75.1566C108.366 75.0313 108.574 74.9061 108.825 74.8226C109.076 74.7391 109.326 74.6973 109.619 74.6973C109.995 74.6973 110.371 74.7391 110.705 74.8643C111.039 74.9896 111.332 75.1566 111.624 75.4071L111.123 76.2004C110.872 75.9917 110.621 75.8664 110.371 75.7829C110.12 75.6994 109.869 75.6576 109.661 75.6576C109.452 75.6576 109.243 75.6994 109.117 75.7829C108.95 75.8664 108.909 76.0334 108.909 76.2004C108.909 76.2839 108.909 76.3674 108.95 76.4092C108.992 76.451 109.034 76.5345 109.117 76.5762C109.201 76.618 109.285 76.6597 109.41 76.7015C109.535 76.7432 109.702 76.785 109.869 76.8267C110.204 76.9102 110.496 76.9938 110.747 77.0773C110.997 77.1608 111.206 77.286 111.373 77.3695C111.54 77.4948 111.666 77.6201 111.708 77.7871C111.791 77.9541 111.833 78.1211 111.833 78.3299C111.833 78.8309 111.666 79.2067 111.29 79.499C110.747 79.833 110.245 79.9583 109.619 79.9583Z" fill="white"/>
</svg>
