<svg width="226" height="78" viewBox="0 0 226 78" fill="none" xmlns="http://www.w3.org/2000/svg">
<path d="M35.5992 51.4541C36.3895 51.3856 36.905 51.2488 37.1799 50.9409C37.4548 50.6672 37.5922 50.0856 37.5922 49.2645V38.659C37.5922 37.7695 37.4548 37.1879 37.1799 36.9484C36.905 36.7089 36.3895 36.5379 35.5992 36.4694V35.8536H43.3307C45.3924 35.8536 46.9387 36.1958 48.0039 36.8458C49.0692 37.4958 49.619 38.659 49.619 40.2669C49.619 41.0538 49.4128 41.8064 49.0005 42.4907C48.5881 43.1749 47.9009 43.7223 46.9387 44.167C46.2171 44.4749 45.4955 44.646 44.7395 44.7144C44.0179 44.7828 42.9183 44.817 41.5095 44.817V49.2645C41.5095 50.154 41.6469 50.7356 41.9562 51.0093C42.2655 51.283 42.8153 51.4198 43.64 51.4541V52.0699H35.6336V51.4541H35.5992ZM44.3616 43.4828C45.1175 43.0038 45.4955 41.9433 45.4955 40.3695C45.4955 39.2748 45.3237 38.3853 44.9457 37.7353C44.5677 37.051 43.8805 36.7431 42.8153 36.7431C42.3342 36.7431 41.9906 36.8116 41.7844 36.9142C41.5782 37.0168 41.4751 37.2563 41.4751 37.5642V43.996C42.9183 43.9618 43.8805 43.7907 44.3616 43.4828Z" fill="white"/>
<path d="M50.3062 51.4541C51.1309 51.4198 51.6807 51.2488 51.99 51.0093C52.2992 50.7356 52.4367 50.154 52.4367 49.2645V38.659C52.4367 37.7353 52.2649 37.1195 51.9212 36.8458C51.6807 36.6747 51.1653 36.5379 50.3406 36.4694V35.8536H58.0721C59.6871 35.8536 60.9928 36.0247 61.955 36.3668C63.8793 37.051 64.8414 38.2484 64.8414 40.0274C64.8414 41.3275 64.326 42.3538 63.3295 43.1065C62.5735 43.6538 61.7488 44.0302 60.8898 44.167L66.0097 50.9751C66.1472 51.1462 66.2846 51.283 66.4221 51.3514C66.5595 51.4198 66.7657 51.4541 66.9719 51.4541V52.0357H61.955L56.354 44.5433V49.2645C56.354 50.1198 56.4914 50.6672 56.7663 50.9751C57.0412 51.283 57.6254 51.4198 58.4501 51.4541V52.0699H50.3062V51.4541ZM59.6871 43.1749C60.3743 42.7643 60.7179 41.8064 60.7179 40.2669C60.7179 39.3432 60.5805 38.5906 60.34 38.0774C59.8933 37.1537 59.0686 36.7089 57.9003 36.7089C57.2474 36.7089 56.835 36.7773 56.6289 36.9484C56.4227 37.1195 56.3196 37.3589 56.3196 37.7353V43.8249C57.8659 43.7907 58.9998 43.5854 59.6871 43.1749Z" fill="white"/>
<path d="M82.641 37.8721C84.2904 39.48 85.1151 41.5327 85.1151 44.0301C85.1151 46.5618 84.2904 48.6145 82.641 50.1882C81.026 51.7619 78.9986 52.5146 76.5933 52.5146C74.0161 52.5146 71.92 51.6593 70.305 49.9487C68.7931 48.3408 68.0371 46.3907 68.0371 44.1328C68.0371 41.6353 68.8274 39.5484 70.4081 37.9405C71.9887 36.2983 74.0505 35.4773 76.5933 35.4773C79.033 35.5457 81.026 36.2983 82.641 37.8721ZM80.3044 48.546C80.648 47.3828 80.8542 45.8775 80.8542 44.0301C80.8542 41.4643 80.4762 39.5484 79.7202 38.2484C78.9643 36.9484 77.9334 36.2983 76.5933 36.2983C74.7721 36.2983 73.535 37.3931 72.8478 39.5484C72.5042 40.6774 72.3324 42.1827 72.3324 44.0301C72.3324 45.8775 72.5042 47.3828 72.8822 48.546C73.535 50.6671 74.8064 51.7277 76.6276 51.7277C78.3801 51.7619 79.6515 50.6671 80.3044 48.546Z" fill="white"/>
<path d="M87.6579 51.454C88.3451 51.454 88.8262 51.3513 89.1354 51.2145C89.6165 50.975 89.857 50.496 89.857 49.7776V38.1799C89.857 37.4615 89.6165 37.0167 89.1698 36.7773C88.8949 36.6404 88.3795 36.5378 87.6579 36.5036V35.8878H96.0766V36.5036C95.3206 36.5378 94.8052 36.6062 94.5303 36.743C94.0492 36.9825 93.8087 37.4615 93.8087 38.1799V49.7776C93.8087 50.4618 93.9805 50.9066 94.3585 51.1118C94.7365 51.3513 95.2863 51.454 96.0422 51.454V52.0698H87.6235V51.454H87.6579Z" fill="white"/>
<path d="M98.8599 51.454C99.7534 51.4198 100.338 51.2487 100.578 50.9408C100.853 50.6329 100.956 50.1539 100.956 49.5381V38.1799C100.234 37.3589 99.7533 36.8799 99.5815 36.743C99.4097 36.6062 99.1692 36.5036 98.8599 36.4694V35.8535H103.946L112.227 45.8433H112.33V38.7957C112.33 37.9747 112.192 37.3931 111.883 37.051C111.574 36.7088 110.99 36.5036 110.096 36.4351V35.8193H115.251V36.4351C114.495 36.572 113.979 36.7088 113.739 36.9483C113.498 37.1536 113.361 37.6325 113.361 38.351V52.4803H112.708L102.124 39.6852H102.056V49.0592C102.056 49.8118 102.159 50.325 102.365 50.6329C102.674 51.1119 103.327 51.3855 104.324 51.4198V52.0356H98.8599V51.454Z" fill="white"/>
<path d="M116.178 51.454C116.797 51.4198 117.209 51.3171 117.484 51.1803C117.965 50.9408 118.206 50.496 118.206 49.846V38.0431C118.206 37.4273 118 36.9825 117.553 36.743C117.278 36.6062 116.831 36.5036 116.213 36.4351V35.8193H123.566C126.521 35.8193 128.789 36.6062 130.37 38.1799C131.779 39.6168 132.501 41.5326 132.501 43.9617C132.501 46.117 131.779 47.9644 130.37 49.4697C128.755 51.1461 126.59 52.0014 123.841 52.0014H116.247V51.454H116.178ZM122.364 50.9408C122.535 51.1461 122.879 51.2829 123.395 51.2829C124.803 51.2829 126.006 50.7697 126.899 49.7776C127.793 48.7855 128.274 46.8354 128.274 43.9959C128.274 42.3195 128.033 40.8484 127.518 39.651C126.728 37.701 125.388 36.7088 123.463 36.7088C122.845 36.7088 122.432 36.8457 122.226 37.1194C122.089 37.2904 122.054 37.6325 122.054 38.1115V49.9145C122.089 50.3592 122.192 50.7355 122.364 50.9408Z" fill="white"/>
<path d="M141.744 35.8878V36.5036C140.816 36.5378 140.198 36.6746 139.888 36.9483C139.579 37.1878 139.407 37.8036 139.407 38.6931V46.7328C139.407 47.9644 139.545 48.8881 139.854 49.5723C140.369 50.8039 141.4 51.4198 142.878 51.4198C144.733 51.4198 145.97 50.7355 146.623 49.3671C146.967 48.6144 147.173 47.5539 147.173 46.2196V38.8984C147.173 38.0431 147.001 37.4615 146.692 37.1194C146.383 36.7773 145.764 36.6062 144.837 36.5378V35.922H150.128V36.5378C149.372 36.6746 148.857 36.8799 148.616 37.0852C148.376 37.2904 148.238 37.8036 148.238 38.5562V46.1854C148.238 48.2039 147.757 49.7776 146.761 50.9066C145.764 52.0013 144.218 52.5829 142.122 52.5829C139.373 52.5829 137.483 51.7619 136.452 50.1197C135.902 49.2302 135.627 48.1355 135.627 46.7328V38.7273C135.627 37.8378 135.524 37.2562 135.284 37.0167C135.043 36.7773 134.494 36.6062 133.669 36.5378V35.922H141.744V35.8878Z" fill="white"/>
<path d="M151.434 46.4935H152.121C152.499 48.2725 153.118 49.5725 153.977 50.3936C154.836 51.2147 155.798 51.6252 156.898 51.6252C157.963 51.6252 158.719 51.3515 159.2 50.8041C159.647 50.2568 159.887 49.6752 159.887 49.0594C159.887 48.3409 159.647 47.7593 159.166 47.3146C158.856 47.0067 158.238 46.6303 157.276 46.1514L155.729 45.3645C154.217 44.6119 153.152 43.8592 152.499 43.1066C151.881 42.3539 151.572 41.4302 151.572 40.3354C151.572 39.1723 151.984 38.0775 152.809 37.0511C153.633 36.0248 154.905 35.5458 156.623 35.5458C157.482 35.5458 158.341 35.6827 159.131 35.9564C159.956 36.2301 160.403 36.3669 160.54 36.3669C160.815 36.3669 160.987 36.2985 161.09 36.1274C161.193 35.9906 161.262 35.7853 161.33 35.5116H162.052V40.7118H161.399C161.09 39.5144 160.54 38.4538 159.75 37.5985C158.959 36.709 157.997 36.2985 156.863 36.2985C156.073 36.2985 155.454 36.5038 154.973 36.9485C154.527 37.3933 154.286 37.9406 154.286 38.5564C154.286 39.3091 154.492 39.8907 154.939 40.267C155.351 40.6433 156.314 41.2249 157.791 41.9434L159.578 42.8329C160.368 43.2434 160.987 43.6882 161.468 44.1671C162.361 45.0566 162.774 46.1856 162.774 47.4514C162.774 48.6488 162.293 49.812 161.365 50.8726C160.437 51.9331 158.925 52.4805 156.829 52.4805C156.348 52.4805 155.867 52.4463 155.386 52.3437C154.905 52.241 154.424 52.1042 153.943 51.9331L153.496 51.7621C153.393 51.7278 153.29 51.6936 153.187 51.6936C153.083 51.6594 153.015 51.6594 152.946 51.6594C152.705 51.6594 152.534 51.7279 152.431 51.8647C152.327 52.0015 152.259 52.2068 152.19 52.4805H151.503V46.4935H151.434Z" fill="white"/>
<path d="M164.595 35.8878H179.061L179.096 40.7116H178.408C178.168 39.001 177.515 37.8036 176.45 37.222C175.831 36.8799 174.938 36.7088 173.735 36.6746V49.2644C173.735 50.1539 173.907 50.7355 174.216 51.0092C174.525 51.2829 175.178 51.454 176.14 51.454V52.0698H167.55V51.454C168.478 51.454 169.131 51.3171 169.44 51.0092C169.749 50.7013 169.887 50.1197 169.887 49.2644V36.6404C168.718 36.6746 167.825 36.8457 167.172 37.1878C166.038 37.8036 165.385 38.9668 165.213 40.6774H164.526L164.595 35.8878Z" fill="white"/>
<path d="M180.401 51.4541C181.226 51.4198 181.776 51.2488 182.085 51.0093C182.394 50.7356 182.532 50.154 182.532 49.2645V38.659C182.532 37.7353 182.36 37.1195 182.016 36.8458C181.776 36.6747 181.26 36.5379 180.436 36.4694V35.8536H188.167C189.782 35.8536 191.088 36.0247 192.05 36.3668C193.974 37.051 194.937 38.2484 194.937 40.0274C194.937 41.3275 194.421 42.3538 193.425 43.1065C192.669 43.6538 191.844 44.0302 190.985 44.167L196.105 50.9751C196.242 51.1462 196.38 51.283 196.517 51.3514C196.655 51.4198 196.861 51.4541 197.067 51.4541V52.0357H192.05L186.449 44.5433V49.2645C186.449 50.1198 186.587 50.6672 186.861 50.9751C187.136 51.283 187.72 51.4198 188.545 51.4541V52.0699H180.401V51.4541ZM189.782 43.1749C190.469 42.7643 190.813 41.8064 190.813 40.2669C190.813 39.3432 190.676 38.5906 190.435 38.0774C189.988 37.1537 189.164 36.7089 187.995 36.7089C187.343 36.7089 186.93 36.7773 186.724 36.9484C186.518 37.1195 186.415 37.3589 186.415 37.7353V43.8249C187.995 43.7907 189.129 43.5854 189.782 43.1749Z" fill="white"/>
<path d="M197.789 51.454C198.476 51.454 198.957 51.3513 199.266 51.2145C199.747 50.975 199.988 50.496 199.988 49.7776V38.1799C199.988 37.4615 199.747 37.0167 199.301 36.7773C199.026 36.6404 198.51 36.5378 197.789 36.5036V35.8878H206.173V36.5036C205.417 36.5378 204.902 36.6062 204.627 36.743C204.146 36.9825 203.905 37.4615 203.905 38.1799V49.7776C203.905 50.4618 204.077 50.9066 204.455 51.1118C204.833 51.3513 205.383 51.454 206.139 51.454V52.0698H197.72V51.454H197.789Z" fill="white"/>
<path d="M207.17 51.4541C207.754 51.4199 208.2 51.1462 208.578 50.6672C208.819 50.3593 209.128 49.7093 209.541 48.6488L214.901 35.5458H215.554L220.914 48.1356C221.533 49.5383 221.98 50.462 222.255 50.8725C222.564 51.283 222.976 51.4883 223.526 51.4541V52.0699H215.726V51.4541C216.516 51.4199 217.031 51.3515 217.272 51.2488C217.513 51.1462 217.65 50.9067 217.65 50.462C217.65 50.2909 217.581 49.983 217.478 49.6067C217.409 49.3672 217.306 49.0935 217.169 48.7856L216.55 47.3487H211.156C210.812 48.3066 210.571 48.9225 210.468 49.1961C210.262 49.812 210.159 50.2567 210.159 50.5304C210.159 50.8725 210.4 51.112 210.846 51.283C211.121 51.3857 211.534 51.4199 212.083 51.4199V52.0357H207.17V51.4541ZM216.207 46.425L213.905 40.8828H213.698L211.534 46.425H216.207Z" fill="white"/>
<path d="M22.1636 42.4906C21.7856 31.3377 31.2352 22.3059 42.4373 22.3059C50.3749 22.3059 57.213 26.8218 60.5461 33.4246H66.8344C63.1577 23.5717 53.605 16.5583 42.4373 16.5583C28.0395 16.5583 16.3908 28.156 16.3908 42.4906C16.3908 56.312 27.2492 67.6018 40.9597 68.3887C40.9597 68.3887 22.7478 59.4595 22.1636 42.4906Z" fill="white"/>
<path d="M77.7959 18.3373L66.0784 6.39754L60.2369 10.195L51.7494 6.39754L49.4472 0H33.9155L31.5788 6.97913L23.9848 10.7766L16.9749 6.70544L5.56667 17.7557L9.65577 25.3165L7.00988 31.714L0 33.493V51.8303L7.45659 53.4041L10.8241 61.7517L7.00988 66.7123L17.834 77.7626L26.9056 75.4362C26.9056 75.4362 35.0838 78.9258 40.3755 77.7626C40.3755 77.7626 19.3115 68.9361 13.9854 51.7277C12.9889 48.8539 12.4735 45.8091 12.4735 42.5933C12.4735 26.5823 25.9091 13.6162 42.4716 13.6162C55.2887 13.6162 66.1815 22.4769 70.4424 33.3904L79.033 33.3219L74.0161 25.0086L77.7959 18.3373Z" fill="white"/>
<path d="M224.351 54.6357H37.1455V54.9094H224.351V54.6357Z" fill="white"/>
<path d="M37.4548 59.5963C37.4548 58.3305 38.4169 57.4068 39.757 57.4068C40.4099 57.4068 40.9941 57.6463 41.4064 58.091L40.9941 58.4674C40.6505 58.1252 40.2381 57.9542 39.7914 57.9542C38.8293 57.9542 38.0733 58.6726 38.0733 59.5963C38.0733 60.52 38.7949 61.2385 39.7914 61.2385C40.2725 61.2385 40.6848 61.0674 40.9941 60.7253L41.4064 61.1016C40.9941 61.5464 40.4443 61.7859 39.757 61.7859C38.4169 61.7859 37.4548 60.8622 37.4548 59.5963Z" fill="white"/>
<path d="M45.4268 61.2044V61.7518H42.2998V57.4412H45.3581V57.9885H42.9184V59.3228H45.0832V59.836H42.9184V61.2386H45.4268V61.2044Z" fill="white"/>
<path d="M50.2031 57.4412V61.7518H49.6877L47.0762 58.5359V61.7518H46.4577V57.4412H46.9731L49.5846 60.657V57.4412H50.2031Z" fill="white"/>
<path d="M52.3679 57.9542H50.8904V57.4068H54.464V57.9542H52.9865V61.7174H52.3679V57.9542Z" fill="white"/>
<path d="M58.0721 61.7517L57.1443 60.4174C57.0412 60.4174 56.9725 60.4174 56.8694 60.4174H55.8042V61.7174H55.1857V57.4068H56.8694C58.0034 57.4068 58.6906 57.9884 58.6906 58.9121C58.6906 59.5621 58.347 60.0411 57.7285 60.2806L58.7593 61.7174H58.0721V61.7517ZM58.0377 58.9463C58.0377 58.3305 57.6254 57.9884 56.8351 57.9884H55.7698V59.9384H56.8351C57.6254 59.9042 58.0377 59.5621 58.0377 58.9463Z" fill="white"/>
<path d="M59.3435 59.5963C59.3435 58.3305 60.3056 57.4068 61.6457 57.4068C62.9515 57.4068 63.948 58.3305 63.948 59.5963C63.948 60.8622 62.9859 61.7859 61.6457 61.7859C60.3056 61.7859 59.3435 60.8622 59.3435 59.5963ZM63.3295 59.5963C63.3295 58.6384 62.6079 57.9542 61.6457 57.9542C60.6836 57.9542 59.962 58.6726 59.962 59.5963C59.962 60.52 60.6836 61.2385 61.6457 61.2385C62.6079 61.2385 63.3295 60.5543 63.3295 59.5963Z" fill="white"/>
<path d="M66.5939 57.4412H68.4151C69.8239 57.4412 70.7517 58.3307 70.7517 59.5965C70.7517 60.8623 69.7896 61.7518 68.4151 61.7518H66.5939V57.4412ZM68.3807 61.2044C69.446 61.2044 70.1332 60.5544 70.1332 59.5965C70.1332 58.6386 69.446 57.9885 68.3807 57.9885H67.2124V61.2386H68.3807V61.2044Z" fill="white"/>
<path d="M74.8752 61.2044V61.7518H71.7482V57.4412H74.8065V57.9885H72.3668V59.3228H74.5316V59.836H72.3668V61.2386H74.8752V61.2044Z" fill="white"/>
<path d="M77.5898 57.4412H79.411C80.8198 57.4412 81.7476 58.3307 81.7476 59.5965C81.7476 60.8623 80.7855 61.7518 79.411 61.7518H77.5898V57.4412ZM79.3766 61.2044C80.4418 61.2044 81.1291 60.5544 81.1291 59.5965C81.1291 58.6386 80.4418 57.9885 79.3766 57.9885H78.2083V61.2386H79.3766V61.2044Z" fill="white"/>
<path d="M85.8711 61.2044V61.7518H82.7441V57.4412H85.8023V57.9885H83.3626V59.3228H85.5274V59.836H83.3626V61.2386H85.8711V61.2044Z" fill="white"/>
<path d="M86.4896 61.2385L86.7301 60.7595C87.0394 61.0332 87.5892 61.2727 88.1733 61.2727C88.9293 61.2727 89.2385 60.999 89.2385 60.6227C89.2385 59.5621 86.627 60.2463 86.627 58.6384C86.627 57.9884 87.1424 57.4068 88.2764 57.4068C88.7918 57.4068 89.3073 57.5436 89.6852 57.7831L89.4791 58.2621C89.1011 58.0226 88.6887 57.92 88.2764 57.92C87.5548 57.92 87.2112 58.2279 87.2112 58.6042C87.2112 59.6648 89.8227 59.0147 89.8227 60.5885C89.8227 61.2385 89.3073 61.8201 88.1389 61.8201C87.4861 61.7859 86.8332 61.5806 86.4896 61.2385Z" fill="white"/>
<path d="M93.4995 60.657H91.1972L90.7161 61.7518H90.0632L92.0219 57.4412H92.6404L94.599 61.7518H93.9462L93.4995 60.657ZM93.2933 60.1781L92.3655 58.057L91.4377 60.1781H93.2933Z" fill="white"/>
<path d="M98.2071 61.7517L97.2793 60.4174C97.1762 60.4174 97.1075 60.4174 97.0044 60.4174H95.9392V61.7174H95.3206V57.4068H97.0044C98.1383 57.4068 98.8256 57.9884 98.8256 58.9121C98.8256 59.5621 98.482 60.0411 97.8634 60.2806L98.8943 61.7174H98.2071V61.7517ZM98.1727 58.9463C98.1727 58.3305 97.7604 57.9884 96.97 57.9884H95.9048V59.9384H96.97C97.7604 59.9042 98.1727 59.5621 98.1727 58.9463Z" fill="white"/>
<path d="M102.709 61.7517L101.781 60.4174C101.678 60.4174 101.609 60.4174 101.506 60.4174H100.441V61.7174H99.8221V57.4068H101.506C102.64 57.4068 103.327 57.9884 103.327 58.9121C103.327 59.5621 102.983 60.0411 102.365 60.2806L103.396 61.7174H102.709V61.7517ZM102.709 58.9463C102.709 58.3305 102.296 57.9884 101.506 57.9884H100.441V59.9384H101.506C102.296 59.9042 102.709 59.5621 102.709 58.9463Z" fill="white"/>
<path d="M104.014 59.5963C104.014 58.3305 104.976 57.4068 106.317 57.4068C107.622 57.4068 108.619 58.3305 108.619 59.5963C108.619 60.8622 107.657 61.7859 106.317 61.7859C104.976 61.7859 104.014 60.8622 104.014 59.5963ZM107.966 59.5963C107.966 58.6384 107.244 57.9542 106.282 57.9542C105.32 57.9542 104.598 58.6726 104.598 59.5963C104.598 60.52 105.32 61.2385 106.282 61.2385C107.279 61.2385 107.966 60.5543 107.966 59.5963Z" fill="white"/>
<path d="M109.581 57.4412H110.199V61.2044H112.536V61.7518H109.581V57.4412Z" fill="white"/>
<path d="M113.258 57.4412H113.876V61.2044H116.213V61.7518H113.258V57.4412Z" fill="white"/>
<path d="M116.522 59.5963C116.522 58.3305 117.484 57.4068 118.824 57.4068C120.13 57.4068 121.127 58.3305 121.127 59.5963C121.127 60.8622 120.165 61.7859 118.824 61.7859C117.519 61.7859 116.522 60.8622 116.522 59.5963ZM120.508 59.5963C120.508 58.6384 119.787 57.9542 118.824 57.9542C117.862 57.9542 117.141 58.6726 117.141 59.5963C117.141 60.52 117.862 61.2385 118.824 61.2385C119.787 61.2385 120.508 60.5543 120.508 59.5963Z" fill="white"/>
<path d="M125.456 60.2465V61.7518H124.838V60.2465L123.12 57.4412H123.773L125.147 59.6991L126.556 57.4412H127.174L125.456 60.2465Z" fill="white"/>
<path d="M129.167 59.5963C129.167 58.3305 130.13 57.4068 131.47 57.4068C132.123 57.4068 132.707 57.6463 133.119 58.091L132.707 58.4674C132.363 58.1252 131.951 57.9542 131.504 57.9542C130.542 57.9542 129.786 58.6726 129.786 59.5963C129.786 60.52 130.508 61.2385 131.504 61.2385C131.985 61.2385 132.397 61.0674 132.707 60.7253L133.119 61.1016C132.707 61.5464 132.157 61.7859 131.47 61.7859C130.13 61.7859 129.167 60.8622 129.167 59.5963Z" fill="white"/>
<path d="M133.566 59.5963C133.566 58.3305 134.528 57.4068 135.868 57.4068C137.174 57.4068 138.17 58.3305 138.17 59.5963C138.17 60.8622 137.208 61.7859 135.868 61.7859C134.528 61.7859 133.566 60.8622 133.566 59.5963ZM137.552 59.5963C137.552 58.6384 136.83 57.9542 135.868 57.9542C134.906 57.9542 134.184 58.6726 134.184 59.5963C134.184 60.52 134.906 61.2385 135.868 61.2385C136.83 61.2385 137.552 60.5543 137.552 59.5963Z" fill="white"/>
<path d="M143.153 61.7518V58.6044L141.572 61.2386H141.297L139.717 58.6386V61.7518H139.132V57.4412H139.648L141.469 60.486L143.256 57.4412H143.771V61.7518H143.153Z" fill="white"/>
<path d="M148.548 58.9465C148.548 59.8702 147.86 60.4518 146.726 60.4518H145.696V61.7518H145.077V57.4412H146.761C147.895 57.4412 148.548 57.9885 148.548 58.9465ZM147.929 58.9465C147.929 58.3307 147.517 57.9885 146.726 57.9885H145.696V59.9386H146.761C147.517 59.9044 147.929 59.5623 147.929 58.9465Z" fill="white"/>
<path d="M152.637 61.2044V61.7518H149.51V57.4412H152.568V57.9885H150.128V59.3228H152.293V59.836H150.128V61.2386H152.637V61.2044Z" fill="white"/>
<path d="M154.527 57.9542H153.049V57.4068H156.623V57.9542H155.145V61.7174H154.527V57.9542Z" fill="white"/>
<path d="M157.31 57.4412H157.929V61.7518H157.31V57.4412Z" fill="white"/>
<path d="M160.128 57.9542H158.65V57.4068H162.224V57.9542H160.746V61.7174H160.128V57.9542Z" fill="white"/>
<path d="M162.911 57.4412H163.53V61.7518H162.911V57.4412Z" fill="white"/>
<path d="M168.581 57.4412L166.691 61.7518H166.072L164.182 57.4412H164.835L166.382 60.9992L167.962 57.4412H168.581Z" fill="white"/>
<path d="M169.165 57.4412H169.783V61.7518H169.165V57.4412Z" fill="white"/>
<path d="M171.089 57.4412H172.91C174.319 57.4412 175.247 58.3307 175.247 59.5965C175.247 60.8623 174.285 61.7518 172.91 61.7518H171.089V57.4412ZM172.876 61.2044C173.941 61.2044 174.629 60.5544 174.629 59.5965C174.629 58.6386 173.941 57.9885 172.876 57.9885H171.708V61.2386H172.876V61.2044Z" fill="white"/>
<path d="M178.924 60.657H176.622L176.14 61.7518H175.488L177.446 57.4412H178.065L180.023 61.7518H179.371L178.924 60.657ZM178.718 60.1781L177.79 58.057L176.862 60.1781H178.718Z" fill="white"/>
<path d="M180.711 57.4412H182.532C183.941 57.4412 184.868 58.3307 184.868 59.5965C184.868 60.8623 183.906 61.7518 182.532 61.7518H180.711V57.4412ZM182.497 61.2044C183.563 61.2044 184.25 60.5544 184.25 59.5965C184.25 58.6386 183.563 57.9885 182.497 57.9885H181.329V61.2386H182.497V61.2044Z" fill="white"/>
<path d="M187.549 57.4412H188.167V61.7518H187.549V57.4412Z" fill="white"/>
<path d="M193.218 57.4412V61.7518H192.703L190.092 58.5359V61.7518H189.473V57.4412H189.988L192.6 60.657V57.4412H193.218Z" fill="white"/>
<path d="M194.524 57.4412H196.345C197.754 57.4412 198.682 58.3307 198.682 59.5965C198.682 60.8623 197.72 61.7518 196.345 61.7518H194.524V57.4412ZM196.311 61.2044C197.376 61.2044 198.064 60.5544 198.064 59.5965C198.064 58.6386 197.376 57.9885 196.311 57.9885H195.143V61.2386H196.311V61.2044Z" fill="white"/>
<path d="M199.644 59.87V57.4068H200.263V59.8358C200.263 60.7937 200.709 61.2385 201.465 61.2385C202.221 61.2385 202.702 60.7937 202.702 59.8358V57.4068H203.287V59.87C203.287 61.1358 202.599 61.7859 201.465 61.7859C200.331 61.7859 199.644 61.1358 199.644 59.87Z" fill="white"/>
<path d="M204.18 61.2385L204.421 60.7595C204.73 61.0332 205.28 61.2727 205.864 61.2727C206.62 61.2727 206.929 60.999 206.929 60.6227C206.929 59.5621 204.317 60.2463 204.317 58.6384C204.317 57.9884 204.833 57.4068 205.967 57.4068C206.482 57.4068 206.998 57.5436 207.376 57.7831L207.17 58.2621C206.792 58.0226 206.379 57.92 205.967 57.92C205.245 57.92 204.902 58.2279 204.902 58.6042C204.902 59.6648 207.513 59.0147 207.513 60.5885C207.513 61.2385 206.998 61.8201 205.829 61.8201C205.176 61.7859 204.524 61.5806 204.18 61.2385Z" fill="white"/>
<path d="M209.231 57.9542H207.754V57.4068H211.327V57.9542H209.85V61.7174H209.231V57.9542Z" fill="white"/>
<path d="M214.935 61.7517L214.008 60.4174C213.904 60.4174 213.836 60.4174 213.733 60.4174H212.667V61.7174H212.049V57.4068H213.733C214.867 57.4068 215.554 57.9884 215.554 58.9121C215.554 59.5621 215.21 60.0411 214.592 60.2806L215.623 61.7174H214.935V61.7517ZM214.901 58.9463C214.901 58.3305 214.489 57.9884 213.698 57.9884H212.633V59.9384H213.698C214.489 59.9042 214.901 59.5621 214.901 58.9463Z" fill="white"/>
<path d="M216.55 57.4412H217.169V61.7518H216.55V57.4412Z" fill="white"/>
<path d="M221.258 60.657H218.956L218.475 61.7518H217.856L219.815 57.4412H220.433L222.392 61.7518H221.739L221.258 60.657ZM221.052 60.1781L220.124 58.057L219.196 60.1781H221.052Z" fill="white"/>
<path d="M223.045 57.4412H223.663V61.2044H226V61.7518H223.045V57.4412Z" fill="white"/>
</svg>
