<svg width="154" height="90" viewBox="0 0 154 90" fill="none" xmlns="http://www.w3.org/2000/svg">
<path d="M85.292 26.938L86.3621 21.5031L83.4789 14.7686L80.2687 11.4309C80.2687 11.4309 80.0606 11.2832 80.0904 11.2832C85.2326 13.4985 89.0967 19.5537 89.7506 26.8789V26.9084L85.292 26.938ZM83.6572 26.938L78.0097 26.9084V11.5786C78.0097 11.5786 78.0691 11.6081 78.0691 11.6377C81.3982 14.4733 83.6572 20.1444 83.6572 26.7017C83.6572 26.7903 83.6572 26.938 83.6572 26.938ZM89.6912 26.9084H85.292C85.292 26.9084 85.292 26.3768 85.2623 26.1109C85.2623 26.4358 85.292 25.1067 85.1137 23.423C84.6975 19.3469 83.4492 16.0683 81.636 13.2327C80.8929 12.0807 80.0606 11.2832 80.0606 11.2832L80.0309 11.2537C80.0309 11.2537 80.447 11.5195 80.7146 11.6672C81.0712 11.9035 81.4279 12.1103 81.7549 12.3466C82.9438 13.1736 83.9545 14.1483 84.4895 14.68C84.5489 14.7391 84.7273 14.9163 84.9353 15.1526C85.1434 15.3889 85.3515 15.6252 85.5298 15.832C86.2135 16.6295 86.8674 17.5451 87.4321 18.5789C87.7591 19.1401 88.0266 19.7309 88.2644 20.3216C89.2453 22.7141 89.602 25.1067 89.6912 26.7017C89.6912 26.7312 89.6912 26.9084 89.6912 26.9084ZM91.8907 26.17L89.7209 17.3974L85.1434 12.5533C85.1434 12.5533 83.7761 11.6081 83.0033 11.0765C82.7061 10.8697 82.4683 10.7516 82.4683 10.7516H82.498C89.0075 13.3508 93.6444 19.5832 93.9119 26.9084V26.938L91.8907 26.17ZM91.3854 26.938C91.3854 26.938 91.2368 25.1657 90.9098 23.5707C90.6423 22.212 90.1965 21.0305 90.1667 20.8828C89.8992 20.1149 89.602 19.2583 89.1264 18.3426C88.2644 16.6885 87.4024 15.1231 85.8271 13.469C85.3515 12.9669 84.8165 12.4352 84.1923 11.9035C83.7761 11.5491 83.4194 11.2832 83.1222 11.106C83.2708 11.1946 83.4789 11.3128 83.7167 11.4605C84.1923 11.7263 84.7273 12.0512 85.3218 12.4352C85.5893 12.6124 85.8271 12.7896 86.0946 12.9964C86.154 13.0259 86.9863 13.6757 87.8186 14.4437C88.5022 15.0935 89.1561 15.832 89.602 16.3636C90.4045 17.3679 91.1773 18.5199 91.8313 19.8195C92.6041 21.3259 93.1094 22.8618 93.4066 24.2205C93.6444 25.2543 93.8228 26.8789 93.8228 26.8789L91.3854 26.938ZM89.6912 26.9084H85.292C85.292 26.9084 85.292 26.3768 85.2623 26.1109C85.2623 26.4358 85.292 25.1067 85.1137 23.423C84.6975 19.3469 83.4492 16.0683 81.636 13.2327C80.8929 12.0807 80.0606 11.2832 80.0606 11.2832L80.0309 11.2537C80.0309 11.2537 80.447 11.5195 80.7146 11.6672C81.0712 11.9035 81.4279 12.1103 81.7549 12.3466C82.9438 13.1736 83.9545 14.1483 84.4895 14.68C84.5489 14.7391 84.7273 14.9163 84.9353 15.1526C85.1434 15.3889 85.3515 15.6252 85.5298 15.832C86.2135 16.6295 86.8674 17.5451 87.4321 18.5789C87.7591 19.1401 88.0266 19.7309 88.2644 20.3216C89.2453 22.7141 89.602 25.1067 89.6912 26.7017C89.6912 26.7312 89.6912 26.9084 89.6912 26.9084ZM73.997 11.4605L70.7868 14.7982L67.9036 21.5031L68.9737 26.938L64.5448 26.9084V26.8789C65.1987 19.5537 69.0331 13.5281 74.205 11.2832L73.997 11.4605ZM70.6085 26.938C70.6085 26.938 70.6085 26.7903 70.6085 26.7017C70.6085 20.1739 72.8675 14.4733 76.1965 11.6377C76.2263 11.6081 76.256 11.5786 76.256 11.5786V26.9084L70.6085 26.938ZM74.1753 11.3128C74.1753 11.3128 73.3431 12.1103 72.6 13.2622C70.7868 16.0683 69.5384 19.3764 69.1223 23.4526C68.9439 25.1362 68.9439 26.4949 68.9737 26.1405C68.9737 26.4358 68.9439 26.938 68.9439 26.938H64.5448C64.5448 26.938 64.5448 26.7607 64.5448 26.7312C64.6637 25.1362 64.9907 22.7732 65.9715 20.3512C66.2093 19.7604 66.4769 19.1697 66.8038 18.6085C67.3983 17.5747 68.0522 16.659 68.7061 15.8615C68.8548 15.6547 69.0926 15.4184 69.3006 15.1821C69.5087 14.9458 69.687 14.7686 69.7465 14.7095C70.2815 14.1779 71.2921 13.2032 72.4811 12.3761C72.808 12.1398 73.1647 11.9035 73.5214 11.6967C73.7889 11.5491 74.205 11.2832 74.1753 11.3128ZM71.2327 11.0765C70.4598 11.6081 69.0925 12.5533 69.0925 12.5533L64.5151 17.427L62.1966 26.9675H60.324C60.324 26.9675 60.324 26.9675 60.324 26.938C60.5915 19.6127 65.2285 13.3804 71.738 10.7811H71.7677C71.7677 10.7811 71.5299 10.8697 71.2327 11.0765ZM68.4684 13.469C66.893 15.1231 66.031 16.6885 65.169 18.3426C64.6934 19.2583 64.3962 20.1149 64.1287 20.8828C64.0692 21.0305 63.6531 22.212 63.3856 23.5707C63.0586 25.1657 62.91 26.938 62.91 26.938H60.4726C60.4726 26.938 60.651 25.3134 60.8888 24.2796C61.186 22.9209 61.6913 21.385 62.4641 19.8786C63.1181 18.5789 63.8909 17.427 64.6934 16.4227C65.1393 15.8615 65.7932 15.1231 66.4769 14.5028C67.3091 13.7348 68.1414 13.085 68.2008 13.0555C68.4683 12.8487 68.7359 12.6715 68.9737 12.4943C69.5681 12.1103 70.1329 11.7854 70.5787 11.5195C70.8165 11.3718 71.0246 11.2537 71.1732 11.1651C70.9057 11.3423 70.549 11.6081 70.1032 11.9626C69.479 12.4352 68.9439 12.9669 68.4684 13.469ZM74.1753 11.3128C74.1753 11.3128 73.3431 12.1103 72.6 13.2622C70.7868 16.0683 69.5384 19.3764 69.1223 23.4526C68.9439 25.1362 68.9439 26.4949 68.9737 26.1405C68.9737 26.4358 68.9439 26.938 68.9439 26.938H64.5448C64.5448 26.938 64.5448 26.7607 64.5448 26.7312C64.6637 25.1362 64.9907 22.7732 65.9715 20.3512C66.2093 19.7604 66.4769 19.1697 66.8038 18.6085C67.3983 17.5747 68.0522 16.659 68.7061 15.8615C68.8548 15.6547 69.0926 15.4184 69.3006 15.1821C69.5087 14.9458 69.687 14.7686 69.7465 14.7095C70.2815 14.1779 71.2921 13.2032 72.4811 12.3761C72.808 12.1398 73.1647 11.9035 73.5214 11.6967C73.7889 11.5491 74.205 11.2832 74.1753 11.3128ZM80.4173 5.25763H73.8186C73.7592 5.25763 73.6997 5.19856 73.6997 5.13948V4.87365C73.6997 4.81457 73.7592 4.7555 73.8186 4.7555H80.4173C80.4768 4.7555 80.5362 4.81457 80.5362 4.87365V5.13948C80.5362 5.22809 80.4768 5.25763 80.4173 5.25763ZM80.4173 10.2199H73.8186C73.7592 10.2199 73.6997 10.1608 73.6997 10.1017V9.8359C73.6997 9.77683 73.7592 9.71776 73.8186 9.71776H80.4173C80.4768 9.71776 80.5362 9.77683 80.5362 9.8359V10.1017C80.5362 10.1608 80.4768 10.2199 80.4173 10.2199ZM94.7739 28.6807H59.462C59.4026 28.6807 59.3431 28.6216 59.3431 28.5625V28.2671C59.3431 28.2081 59.4026 28.149 59.462 28.149H94.7739C94.8334 28.149 94.8928 28.2081 94.8928 28.2671V28.5625C94.8928 28.6511 94.8334 28.6807 94.7739 28.6807ZM76.4938 1.32918H76.4046C76.4046 1.32918 76.3749 1.32918 76.3749 1.29964V1.06334C76.3749 1.06334 76.3749 1.0338 76.4046 1.0338H76.4938C76.4938 1.0338 76.5235 1.0338 76.5235 1.06334L76.4938 1.32918C76.5235 1.32918 76.5235 1.32918 76.4938 1.32918ZM77.8313 1.32918H77.7422C77.7422 1.32918 77.7125 1.32918 77.7125 1.29964V1.06334C77.7125 1.06334 77.7125 1.0338 77.7422 1.0338H77.8313C77.8313 1.0338 77.8611 1.0338 77.8611 1.06334L77.8313 1.32918C77.8611 1.32918 77.8611 1.32918 77.8313 1.32918ZM76.3749 1.38825V1.29964H77.8611V1.38825H76.3749ZM77.1774 0.32491H77.0585C77.0288 0.32491 77.0288 0.32491 77.0288 0.295372V0.0295372C77.0288 0 77.0288 0 77.0585 0H77.1774C77.2072 0 77.2072 0 77.2072 0.0295372V0.295372C77.2072 0.32491 77.2072 0.32491 77.1774 0.32491ZM77.0883 2.03807V0.32491H77.1774V2.03807H77.0883ZM74.5617 4.46012C74.5617 2.98326 75.721 1.80177 77.118 1.80177C78.515 1.80177 79.6742 2.98326 79.6742 4.43059V4.46012H74.5617ZM80.3282 5.22809H73.9078C73.7889 5.22809 73.6997 5.13948 73.6997 5.02133V4.96226C73.6997 4.84411 73.7889 4.7555 73.9078 4.7555H80.3282C80.4471 4.7555 80.5362 4.84411 80.5362 4.96226V5.02133C80.5362 5.13948 80.4471 5.22809 80.3282 5.22809ZM80.3282 10.2199H73.9078C73.7889 10.2199 73.6997 10.1313 73.6997 10.0131V9.95405C73.6997 9.8359 73.7889 9.74729 73.9078 9.74729H80.3282C80.4471 9.74729 80.5362 9.8359 80.5362 9.95405V10.0131C80.5362 10.1313 80.4471 10.2199 80.3282 10.2199ZM77.4449 9.36331H76.791C76.6721 9.36331 76.583 9.2747 76.583 9.15655V5.73023C76.583 5.61208 76.6721 5.52347 76.791 5.52347H77.4449C77.5638 5.52347 77.653 5.61208 77.653 5.73023V9.15655C77.653 9.2747 77.5638 9.36331 77.4449 9.36331ZM79.1095 9.36331H78.4853C78.3664 9.36331 78.2772 9.2747 78.2772 9.15655V5.73023C78.2772 5.61208 78.3664 5.52347 78.4853 5.52347H79.1392C79.2581 5.52347 79.3473 5.61208 79.3473 5.73023V9.15655C79.3175 9.2747 79.2284 9.36331 79.1095 9.36331ZM75.7507 9.36331H75.0968C74.9779 9.36331 74.8887 9.2747 74.8887 9.15655V5.73023C74.8887 5.61208 74.9779 5.52347 75.0968 5.52347H75.7507C75.8696 5.52347 75.9588 5.61208 75.9588 5.73023V9.15655C75.9588 9.2747 75.8696 9.36331 75.7507 9.36331ZM83.5086 28.3853V27.6173C83.5086 27.5287 83.568 27.4401 83.6869 27.4401H85.2326C85.3218 27.4401 85.4109 27.4992 85.4109 27.6173V28.3262L83.5086 28.3853ZM85.2029 31.1618H83.7167C83.5978 31.1618 83.5086 31.0732 83.5086 30.955V29.4782C83.5086 29.36 83.5978 29.2714 83.7167 29.2714H85.2029C85.3218 29.2714 85.4109 29.36 85.4109 29.4782V30.955C85.4109 31.0732 85.3218 31.1618 85.2029 31.1618ZM89.5425 28.3853V27.6173C89.5425 27.5287 89.602 27.4401 89.7209 27.4401H91.2665C91.3557 27.4401 91.4449 27.4992 91.4449 27.6173V28.3262L89.5425 28.3853ZM91.2368 31.1618H89.7506C89.6317 31.1618 89.5425 31.0732 89.5425 30.955V29.4782C89.5425 29.36 89.6317 29.2714 89.7506 29.2714H91.2368C91.3557 29.2714 91.4449 29.36 91.4449 29.4782V30.955C91.4449 31.0732 91.3557 31.1618 91.2368 31.1618ZM68.8548 28.3262V27.6173C68.8548 27.5287 68.9142 27.4401 69.0331 27.4401H70.6085C70.6976 27.4401 70.7868 27.5287 70.7868 27.6173V28.3853L68.8548 28.3262ZM70.549 31.1618H69.0628C68.9439 31.1618 68.8548 31.0732 68.8548 30.955V29.4782C68.8548 29.36 68.9439 29.2714 69.0628 29.2714H70.549C70.6679 29.2714 70.7571 29.36 70.7571 29.4782V30.955C70.7274 31.0732 70.6382 31.1618 70.549 31.1618ZM62.7911 28.3262V27.6173C62.7911 27.5287 62.8803 27.4401 62.9694 27.4401H64.5448C64.634 27.4401 64.7231 27.5287 64.7231 27.6173V28.3853L62.7911 28.3262ZM64.4854 31.1618H62.9992C62.8803 31.1618 62.7911 31.0732 62.7911 30.955V29.4782C62.7911 29.36 62.8803 29.2714 62.9992 29.2714H64.4854C64.6043 29.2714 64.6934 29.36 64.6934 29.4782V30.955C64.6934 31.0732 64.6043 31.1618 64.4854 31.1618ZM76.1668 28.3262V27.6173C76.1668 27.5287 76.2263 27.4401 76.3452 27.4401H77.9205C78.0097 27.4401 78.0989 27.5287 78.0989 27.6173V28.3853L76.1668 28.3262ZM77.8611 31.1618H76.3749C76.256 31.1618 76.1668 31.0732 76.1668 30.955V29.4782C76.1668 29.36 76.256 29.2714 76.3749 29.2714H77.8611C77.98 29.2714 78.0691 29.36 78.0691 29.4782V30.955C78.0691 31.0732 77.98 31.1618 77.8611 31.1618ZM94.6848 28.6807H59.5809C59.462 28.6807 59.3729 28.5921 59.3729 28.4739V28.3558C59.3729 28.2376 59.462 28.149 59.5809 28.149H94.6848C94.8036 28.149 94.8928 28.2376 94.8928 28.3558V28.4739C94.8928 28.5921 94.8036 28.6807 94.6848 28.6807ZM94.6848 32.8159H59.5512C59.4323 32.8159 59.3431 32.7273 59.3431 32.6091V31.7821C59.3431 31.6639 59.4323 31.5753 59.5512 31.5753H94.6848C94.8036 31.5753 94.8928 31.6639 94.8928 31.7821V32.6091C94.8928 32.7273 94.8036 32.8159 94.6848 32.8159Z" fill="white"/>
<path d="M41.598 40.4365C41.598 39.1369 42.5492 37.9849 43.9759 37.9849C44.7785 37.9849 45.2541 38.2212 45.7296 38.6052L45.373 39.0187C45.0163 38.6938 44.6001 38.4871 43.9462 38.4871C42.9059 38.4871 42.1331 39.3732 42.1331 40.407C42.1331 41.5294 42.8464 42.3564 44.0057 42.3564C44.5407 42.3564 45.046 42.1497 45.373 41.8838V40.7024H43.9462V40.2298H45.908V42.1201C45.4621 42.5041 44.8082 42.829 44.0057 42.829C42.5195 42.8586 41.598 41.7657 41.598 40.4365Z" fill="white"/>
<path d="M47.6617 40.4365C47.6617 39.1369 48.6426 37.9849 50.0991 37.9849C51.5258 37.9849 52.5067 39.1073 52.5067 40.407C52.5067 41.7066 51.5258 42.829 50.0693 42.829C48.6129 42.829 47.6617 41.7362 47.6617 40.4365ZM51.9419 40.4365C51.9419 39.3436 51.1691 38.4871 50.0693 38.4871C48.9696 38.4871 48.2265 39.3436 48.2265 40.407C48.2265 41.4703 48.9993 42.3564 50.0991 42.3564C51.1691 42.3564 51.9419 41.4999 51.9419 40.4365Z" fill="white"/>
<path d="M54.409 38.0735H56.4302C56.9653 38.0735 57.4111 38.2212 57.6786 38.4871C57.8867 38.6938 57.9759 38.9301 57.9759 39.255C57.9759 39.8753 57.5895 40.1707 57.2328 40.3479C57.7975 40.5251 58.2434 40.85 58.2434 41.4703C58.2434 42.2678 57.5598 42.7404 56.5194 42.7404H54.409V38.0735ZM56.3411 40.1707C56.995 40.1707 57.4409 39.8753 57.4409 39.3436C57.4409 38.8711 57.0544 38.5757 56.4005 38.5757H54.9738V40.2002H56.3411V40.1707ZM56.5194 42.2974C57.2328 42.2974 57.6786 41.9725 57.6786 41.4703C57.6786 40.9682 57.2328 40.6728 56.4302 40.6728H54.9441V42.3269H56.5194V42.2974Z" fill="white"/>
<path d="M60.116 38.0735H60.651V42.77H60.116V38.0735Z" fill="white"/>
<path d="M62.7911 38.0735H66.2093V38.5461H63.3261V40.1412H65.9121V40.6138H63.3261V42.2678H66.2391V42.7404H62.7911V38.0735Z" fill="white"/>
<path d="M68.1117 38.0735H70.1626C70.7571 38.0735 71.203 38.2508 71.5002 38.5461C71.738 38.7824 71.8569 39.1074 71.8569 39.4618C71.8569 40.2298 71.3219 40.7024 70.5788 40.8205L72.0352 42.7404H71.3813L70.014 40.9091H68.6764V42.7404H68.1414V38.0735H68.1117ZM70.1032 40.4661C70.8166 40.4661 71.3219 40.1116 71.3219 39.4913C71.3219 38.9006 70.876 38.5757 70.1032 38.5757H68.6467V40.4956H70.1032V40.4661Z" fill="white"/>
<path d="M73.7592 38.0735H74.2645L77.2369 41.8543V38.0735H77.7719V42.77H77.3558L74.2942 38.9006V42.77H73.7592V38.0735Z" fill="white"/>
<path d="M79.6742 40.4365C79.6742 39.1369 80.6551 37.9849 82.1116 37.9849C83.5383 37.9849 84.5192 39.1073 84.5192 40.407C84.5192 41.7066 83.5383 42.829 82.0819 42.829C80.6551 42.8586 79.6742 41.7362 79.6742 40.4365ZM83.9545 40.4365C83.9545 39.3436 83.1816 38.4871 82.0819 38.4871C81.0118 38.4871 80.239 39.3436 80.239 40.407C80.239 41.4703 81.0118 42.3564 82.1116 42.3564C83.1816 42.3564 83.9545 41.4999 83.9545 40.4365Z" fill="white"/>
<path d="M89.2156 38.0735H90.8504C92.3366 38.0735 93.3769 39.0778 93.3769 40.407C93.3769 41.7362 92.3366 42.77 90.8504 42.77H89.2156V38.0735ZM90.8504 42.2678C92.0394 42.2678 92.8122 41.4703 92.8122 40.407C92.8122 39.3732 92.0394 38.5461 90.8504 38.5461H89.7506V42.2678H90.8504Z" fill="white"/>
<path d="M95.2793 38.0735H98.6975V38.5461H95.8143V40.1412H98.4003V40.6138H95.8143V42.2678H98.7272V42.7404H95.2793V38.0735Z" fill="white"/>
<path d="M103.394 38.0735H103.929V42.2974H106.604V42.7995H103.394V38.0735Z" fill="white"/>
<path d="M110.082 38.0144H110.587L112.757 42.7699H112.192L111.627 41.5293H109.041L108.477 42.7699H107.942L110.082 38.0144ZM111.419 41.0567L110.349 38.6642L109.279 41.0567H111.419Z" fill="white"/>
<path d="M7.20755 54.2304C6.58335 54.4372 5.75108 54.4076 5.15661 53.6692L3.64069 51.7493C3.22456 51.2176 2.71925 51.129 2.03561 51.129V53.0194C2.03561 53.6987 2.51119 53.8169 3.13539 53.9055C3.19484 53.9055 3.16511 54.2304 3.07594 54.2304H0.103558C0.014387 54.2304 -0.0450607 53.9055 0.0441108 53.9055C0.549416 53.8464 0.846654 53.6397 0.846654 53.0194V48.6774C0.846654 48.0276 0.489968 47.8504 0.0441108 47.7322C-0.0450607 47.7027 0.014387 47.3778 0.103558 47.4073C0.489968 47.4664 0.906101 47.4664 1.23306 47.4664C1.94644 47.4664 2.63008 47.4073 3.10566 47.4073C4.59185 47.4073 5.57274 47.998 5.57274 49.2091C5.57274 50.3315 4.6513 50.8927 3.81904 50.9518V51.0108C4.20545 51.0108 4.50268 51.1881 4.91882 51.7197L6.37528 53.5215C6.67252 53.9055 6.96976 53.9941 7.17783 53.9941C7.267 53.9646 7.267 54.2304 7.20755 54.2304ZM4.32434 49.4454C4.32434 48.4116 3.67042 47.8799 2.7787 47.8799C2.21395 47.8799 2.00588 48.1162 2.00588 48.6479V50.6564H2.30312C3.78931 50.6564 4.32434 50.4201 4.32434 49.4454Z" fill="white"/>
<path d="M8.78294 53.8759C9.34769 53.7283 9.79355 53.6396 9.79355 52.9308V48.6183C9.79355 47.998 9.40714 47.8208 8.96128 47.7322C8.87211 47.7027 8.93156 47.3778 9.02073 47.4073C9.7341 47.4959 10.9528 47.4664 11.5473 47.4664C12.439 47.4664 13.0929 47.4368 13.8954 47.4073C14.1332 47.4073 14.1332 47.555 14.0738 47.7913L13.836 48.7069C13.8063 48.8546 13.5685 48.8546 13.5387 48.7069C13.3901 48.2343 13.0929 47.9685 11.8742 47.9685C11.1906 47.9685 10.9528 48.1457 10.9528 48.6479V50.2429C10.9528 50.5087 11.0717 50.5382 11.2797 50.5382H11.4878C12.2903 50.5382 12.974 50.4496 13.3604 50.0952C13.4496 50.0066 13.6874 50.0361 13.5982 50.2133L13.0334 51.4244C12.9443 51.6016 12.7957 51.572 12.7065 51.4244C12.4687 51.0994 11.9931 50.9813 11.4284 50.9813H11.2797C11.0717 50.9813 10.9528 51.0404 10.9528 51.2767V52.9012C10.9528 53.4624 11.1906 53.6692 11.9931 53.6692C13.4793 53.6692 14.0441 52.9898 14.2818 52.6354C14.3413 52.5172 14.6088 52.5763 14.6088 52.7535C14.6088 53.2557 14.1927 54.2304 13.5685 54.2304C13.0334 54.2009 12.4984 54.1713 11.6661 54.1713C10.7744 54.1713 9.70438 54.1418 8.81266 54.2304C8.72349 54.2304 8.69377 53.8759 8.78294 53.8759Z" fill="white"/>
<path d="M18.5323 51.6015V52.9898C18.5323 53.6692 19.0079 53.7873 19.6321 53.8759C19.6916 53.8759 19.6618 54.2008 19.5727 54.2008H16.6003C16.5111 54.2008 16.4517 53.8759 16.5408 53.8759C17.0462 53.8168 17.3434 53.6101 17.3434 52.9898V48.6478C17.3434 47.998 16.9867 47.8208 16.5408 47.7026C16.4517 47.6731 16.5111 47.3482 16.6003 47.3777C16.9867 47.4368 17.4028 47.4368 17.7298 47.4368C18.4432 47.4368 19.0674 47.3777 19.543 47.3777C21.0589 47.3777 22.3073 47.9389 22.3073 49.4453C22.3073 51.188 20.6725 51.9265 18.5323 51.6015ZM18.5323 48.6774V51.129C20.1969 51.3653 21.0589 50.9517 21.0589 49.6816C21.0589 48.5297 20.3158 47.8799 19.3052 47.8799C18.681 47.8799 18.5323 48.1162 18.5323 48.6774Z" fill="white"/>
<path d="M25.0716 51.6607V48.6183C25.0716 47.9981 24.7446 47.7913 24.2691 47.7322C24.1799 47.7322 24.2393 47.4073 24.3285 47.4073H27.0036C27.0928 47.4073 27.1523 47.7322 27.0631 47.7322C26.6767 47.7913 26.2903 47.939 26.2903 48.6183V51.7197C26.2903 53.0785 27.0928 53.6987 28.1034 53.6987C29.1735 53.6987 30.0058 53.0785 30.0058 51.7197V48.6183C30.0058 47.9981 29.6491 47.8208 29.1735 47.7322C29.114 47.7322 29.1438 47.4073 29.2329 47.4073H31.4325C31.4919 47.4073 31.5514 47.7322 31.4919 47.7322C31.1055 47.7913 30.7191 47.939 30.7191 48.6183V51.6607C30.7191 53.4329 29.5599 54.3781 28.0143 54.3781C26.6172 54.3486 25.0716 53.6397 25.0716 51.6607ZM27.9548 44.9853C28.1332 44.7194 28.9654 45.4874 28.7276 45.6646L27.4495 46.6393C27.3306 46.7279 26.9739 46.4326 27.0928 46.2849L27.9548 44.9853Z" fill="white"/>
<path d="M39.339 52.2514C39.339 53.4624 38.2392 54.2304 36.6044 54.2304C36.1288 54.2304 35.5938 54.1713 34.8507 54.1713C34.2265 54.1713 33.7806 54.1713 33.3051 54.2304C33.2159 54.2304 33.1564 53.9055 33.2456 53.8759C33.8104 53.7283 34.2562 53.6396 34.2562 52.9308V48.6183C34.2562 47.998 33.8698 47.8208 33.424 47.7322C33.3348 47.7027 33.3942 47.3778 33.4834 47.4073C33.8698 47.4664 34.3454 47.4664 34.6724 47.4664C35.4452 47.4664 36.0397 47.4073 36.4558 47.4073C37.7042 47.4073 38.7445 47.939 38.7742 49.0023C38.7742 49.7998 38.2392 50.3315 37.5556 50.4792V50.5382C38.4473 50.5087 39.339 51.1585 39.339 52.2514ZM35.4452 48.6183V50.361H36.4558C37.1692 50.361 37.5556 50.0066 37.5556 49.2681C37.5556 48.3525 36.9314 47.9094 36.1288 47.9094C35.6235 47.8799 35.4452 48.0571 35.4452 48.6183ZM38.0609 52.4582C38.0609 51.3948 37.3475 50.8336 36.4261 50.8336H35.4155V52.9308C35.4155 53.4624 35.683 53.7283 36.545 53.7283C37.407 53.7283 38.0609 53.4624 38.0609 52.4582Z" fill="white"/>
<path d="M41.1819 53.8759C41.7466 53.7283 42.1925 53.6396 42.1925 52.9308V48.6183C42.1925 47.939 41.8061 47.7913 41.3602 47.7322C41.271 47.7322 41.3305 47.4073 41.4197 47.4073H44.1245C44.184 47.4073 44.2434 47.7322 44.184 47.7322C43.7678 47.7913 43.3814 47.939 43.3814 48.6183V52.9308C43.3814 53.492 43.6192 53.6987 44.4218 53.6987C45.908 53.6987 46.4727 53.0194 46.7105 52.6649C46.7699 52.5468 47.0375 52.6058 47.0375 52.7831C47.0375 53.2852 46.6213 54.2599 45.9971 54.2599C45.4621 54.2304 44.9271 54.2009 44.0948 54.2009C43.2031 54.2009 42.133 54.1713 41.2413 54.2599C41.1521 54.2304 41.1224 53.8759 41.1819 53.8759Z" fill="white"/>
<path d="M48.7615 53.8759C49.2668 53.8169 49.564 53.6101 49.564 52.9898V48.5888C49.564 47.9685 49.237 47.7913 48.7615 47.7027C48.6723 47.7027 48.7317 47.3777 48.8209 47.3777H51.496C51.5852 47.3777 51.6447 47.7027 51.5555 47.7027C51.1394 47.7617 50.753 47.9094 50.753 48.5888V52.9898C50.753 53.6692 51.1394 53.8169 51.5555 53.8759C51.6447 53.8759 51.5852 54.2009 51.496 54.2009H48.8209C48.7615 54.2009 48.702 53.8759 48.7615 53.8759Z" fill="white"/>
<path d="M53.6362 50.9222C53.6362 49.2386 54.6765 47.23 57.4111 47.23C58.5406 47.23 59.5215 47.5845 59.4026 47.9094L59.2837 48.2934C58.927 49.3272 58.5406 47.998 56.8166 47.998C55.4196 47.998 54.736 48.9137 54.736 50.3019C54.736 52.4877 56.4005 53.4033 57.7381 53.4033C57.9164 53.4033 58.8081 53.2556 59.3134 52.9603C59.4026 52.9012 59.6107 53.1375 59.5512 53.2261C59.1351 53.8464 57.8272 54.3485 57.53 54.3485C55.8357 54.3485 53.6362 53.4033 53.6362 50.9222Z" fill="white"/>
<path d="M68.4386 54.2009H65.8527C65.7338 54.2009 65.704 53.8759 65.8229 53.8759C66.1796 53.8169 66.566 53.6692 66.2093 52.8421L66.0904 52.6058C66.0013 52.3695 65.8229 52.34 65.5257 52.34H63.5342C63.237 52.34 63.0883 52.3695 62.9694 52.6058L62.8803 52.8421C62.5533 53.6692 62.91 53.8169 63.3856 53.8759C63.5045 53.9055 63.4747 54.2009 63.3559 54.2009H61.2455C61.1266 54.2009 61.0968 53.8759 61.2157 53.8759C61.6021 53.8169 61.8399 53.6692 62.2263 52.8421L63.8909 49.0614C64.2773 48.2048 64.3962 47.8208 64.3962 47.4368C64.3962 47.3778 65.0798 47.2301 65.1096 47.2891L67.4875 52.8126C67.8441 53.6396 68.0819 53.7873 68.4683 53.8464C68.5872 53.8759 68.5575 54.2009 68.4386 54.2009ZM65.704 51.6606L64.5745 48.9432L63.4153 51.6606C63.3559 51.8083 63.5045 51.8083 63.6531 51.8083H65.496C65.6149 51.8083 65.7635 51.7788 65.704 51.6606Z" fill="white"/>
<path d="M73.1647 53.8759C73.7295 53.7283 74.1753 53.6396 74.1753 52.9308V48.6183C74.1753 47.998 73.7889 47.8208 73.3431 47.7322C73.2539 47.7027 73.3133 47.3778 73.4025 47.4073C73.7889 47.4664 74.205 47.4664 74.6212 47.4664C75.394 47.4664 76.0776 47.4073 76.5532 47.4073C78.9311 47.4073 80.2093 48.7955 80.2093 50.6859C80.2093 52.5468 78.9311 54.2599 76.5532 54.2599C76.0776 54.2599 75.4832 54.2009 74.7698 54.2009C74.1753 54.2009 73.67 54.2009 73.2242 54.2599C73.135 54.2304 73.1053 53.8759 73.1647 53.8759ZM79.05 51.2176C79.05 49.3567 78.0394 47.9094 76.2857 47.9094C75.6021 47.9094 75.3643 48.1162 75.3643 48.6183V52.9308C75.3643 53.4624 75.721 53.7283 76.6721 53.7283C78.2475 53.6987 79.05 52.8421 79.05 51.2176Z" fill="white"/>
<path d="M82.3494 50.8336C82.3494 48.8841 83.7464 47.23 85.8865 47.23C87.9374 47.23 89.4236 48.7069 89.4236 50.745C89.4236 52.724 88.0266 54.3485 85.8865 54.3485C83.8356 54.3485 82.3494 52.8717 82.3494 50.8336ZM88.2644 51.3062C88.2644 49.3567 86.9268 47.9094 85.5298 47.9094C84.6678 47.9094 83.5383 48.4706 83.5383 50.3019C83.5383 52.2809 84.8759 53.6987 86.2729 53.6987C87.1052 53.6987 88.2644 53.1375 88.2644 51.3062Z" fill="white"/>
<path d="M100.065 54.2009H97.5085C97.449 54.2009 97.3896 53.876 97.449 53.876C97.8652 53.8169 98.1624 53.6101 98.1327 52.9898L97.9544 49.7407L96.379 52.9308C96.1709 53.3443 96.0223 53.7873 95.9926 53.935C95.9629 54.0532 95.7548 54.1123 95.6062 54.1123C95.4576 54.1123 95.3684 54.0532 95.3089 53.935L93.0499 49.6817L92.9013 52.9898C92.8716 53.6692 93.258 53.8169 93.5849 53.876C93.6741 53.876 93.6147 54.2009 93.5255 54.2009H91.5043C91.4151 54.2009 91.3557 53.876 91.4448 53.876C91.861 53.8169 92.2177 53.6692 92.2474 52.9898L92.5743 47.4073C92.5743 47.2301 92.9608 47.2301 93.0499 47.4073L95.8737 52.6649L98.4894 47.4073C98.5785 47.2301 98.965 47.2301 98.965 47.4073L99.2622 52.9898C99.2919 53.6692 99.6486 53.8169 100.065 53.876C100.184 53.876 100.124 54.2009 100.065 54.2009Z" fill="white"/>
<path d="M102.056 53.8759C102.562 53.8169 102.859 53.6101 102.859 52.9898V48.5888C102.859 47.9685 102.532 47.7913 102.056 47.7027C101.967 47.7027 102.027 47.3777 102.116 47.3777H104.791C104.88 47.3777 104.939 47.7027 104.85 47.7027C104.434 47.7617 104.048 47.9094 104.048 48.5888V52.9898C104.048 53.6692 104.434 53.8169 104.85 53.8759C104.939 53.8759 104.88 54.2009 104.791 54.2009H102.116C102.027 54.2009 101.997 53.8759 102.056 53.8759Z" fill="white"/>
<path d="M112.876 54.1122L108.239 49.2681V52.9603C108.239 53.6101 108.625 53.7283 109.19 53.8759C109.279 53.9055 109.22 54.2009 109.131 54.2009H106.812C106.723 54.2009 106.663 53.9055 106.753 53.8759C107.169 53.7283 107.555 53.6692 107.555 52.9603V49.1795C107.555 48.5002 107.436 48.1457 107.198 47.8208C107.109 47.7027 107.02 47.614 107.02 47.5845C107.02 47.4959 107.08 47.3777 107.228 47.3777H107.942C108.031 47.3777 108.12 47.3777 108.179 47.4664L112.727 52.2514V48.5888C112.727 47.9094 112.281 47.8208 111.776 47.7027C111.687 47.6731 111.746 47.3777 111.835 47.3777H114.154C114.243 47.3777 114.273 47.7027 114.213 47.7027C113.797 47.8208 113.411 47.9094 113.411 48.5888V52.3695C113.411 53.0194 113.44 53.7283 113.53 54.0827C113.559 54.2304 113.411 54.2599 113.262 54.2599C113.084 54.2895 112.995 54.2304 112.876 54.1122Z" fill="white"/>
<path d="M116.175 53.8759C116.68 53.8169 116.978 53.6101 116.978 52.9898V48.5888C116.978 47.9685 116.651 47.7913 116.175 47.7027C116.086 47.7027 116.145 47.3777 116.235 47.3777H118.91C118.999 47.3777 119.058 47.7027 118.969 47.7027C118.553 47.7617 118.167 47.9094 118.167 48.5888V52.9898C118.167 53.6692 118.553 53.8169 118.969 53.8759C119.058 53.8759 118.999 54.2009 118.91 54.2009H116.235C116.145 54.2009 116.086 53.8759 116.175 53.8759Z" fill="white"/>
<path d="M121.02 50.9222C121.02 49.2386 122.06 47.23 124.795 47.23C125.925 47.23 126.905 47.5845 126.786 47.9094L126.668 48.2934C126.311 49.3272 125.925 47.998 124.201 47.998C122.804 47.998 122.12 48.9137 122.12 50.3019C122.12 52.4877 123.784 53.4033 125.122 53.4033C125.3 53.4033 126.192 53.2556 126.697 52.9603C126.787 52.9012 126.995 53.1375 126.935 53.2261C126.519 53.8464 125.211 54.3485 124.914 54.3485C123.249 54.3485 121.02 53.4033 121.02 50.9222Z" fill="white"/>
<path d="M135.852 54.2009H133.266C133.147 54.2009 133.118 53.8759 133.237 53.8759C133.593 53.8169 133.98 53.6692 133.623 52.8421L133.504 52.6058C133.415 52.3695 133.237 52.34 132.939 52.34H130.948C130.651 52.34 130.502 52.3695 130.383 52.6058L130.294 52.8421C129.937 53.6692 130.324 53.8169 130.799 53.8759C130.918 53.9055 130.888 54.2009 130.769 54.2009H128.659C128.54 54.2009 128.51 53.8759 128.629 53.8759C129.016 53.8169 129.254 53.6692 129.64 52.8421L131.304 49.0614C131.691 48.2048 131.81 47.8208 131.81 47.4368C131.81 47.3778 132.493 47.2301 132.523 47.2891L134.901 52.8126C135.258 53.6396 135.496 53.7873 135.882 53.8464C136.001 53.8759 135.941 54.2009 135.852 54.2009ZM133.118 51.6606L131.988 48.9432L130.829 51.6606C130.769 51.8083 130.918 51.8083 131.067 51.8083H132.91C133.028 51.8083 133.177 51.7788 133.118 51.6606Z" fill="white"/>
<path d="M143.789 54.1122L139.152 49.2681V52.9603C139.152 53.6101 139.538 53.7283 140.103 53.8759C140.192 53.9055 140.132 54.2009 140.043 54.2009H137.725C137.636 54.2009 137.576 53.9055 137.665 53.8759C138.082 53.7283 138.468 53.6692 138.468 52.9603V49.1795C138.468 48.5002 138.349 48.1457 138.111 47.8208C138.022 47.7027 137.933 47.614 137.933 47.5845C137.933 47.4959 137.992 47.3777 138.141 47.3777H138.854C138.944 47.3777 139.033 47.3777 139.092 47.4664L143.64 52.2514V48.5888C143.64 47.9094 143.194 47.8208 142.689 47.7027C142.6 47.6731 142.659 47.3777 142.748 47.3777H145.067C145.156 47.3777 145.186 47.7027 145.126 47.7027C144.71 47.8208 144.324 47.9094 144.324 48.5888V52.3695C144.324 53.0194 144.353 53.7283 144.442 54.0827C144.472 54.2304 144.324 54.2599 144.175 54.2599C143.997 54.2895 143.907 54.2304 143.789 54.1122Z" fill="white"/>
<path d="M153.895 54.2009H151.309C151.19 54.2009 151.16 53.8759 151.279 53.8759C151.636 53.8169 152.022 53.6692 151.665 52.8421L151.546 52.6058C151.457 52.3695 151.279 52.34 150.982 52.34H148.99C148.693 52.34 148.544 52.3695 148.425 52.6058L148.336 52.8421C147.98 53.6692 148.366 53.8169 148.842 53.8759C148.96 53.9055 148.931 54.2009 148.812 54.2009H146.701C146.583 54.2009 146.553 53.8759 146.672 53.8759C147.058 53.8169 147.296 53.6692 147.682 52.8421L149.347 49.0614C149.733 48.2048 149.852 47.8208 149.852 47.4368C149.852 47.3778 150.536 47.2301 150.566 47.2891L152.943 52.8126C153.3 53.6396 153.538 53.7873 153.924 53.8464C154.043 53.8759 154.013 54.2009 153.895 54.2009ZM151.16 51.6606L150.03 48.9432L148.871 51.6606C148.812 51.8083 148.96 51.8083 149.109 51.8083H150.952C151.071 51.8083 151.219 51.7788 151.16 51.6606Z" fill="white"/>
<path d="M94.7145 59.9902H59.4026V61.6443H94.7145V59.9902Z" fill="white"/>
<path d="M7.4156 76.531C7.95063 76.4719 8.27759 76.2356 8.27759 75.5858V70.9485C8.27759 70.2986 7.95063 70.0919 7.4156 70.0033C7.32643 70.0033 7.38588 69.6193 7.47505 69.6193H10.4772C10.5663 69.6193 10.6258 70.0033 10.5366 70.0033C10.0907 70.0624 9.67461 70.21 9.67461 70.9485V75.5858C9.67461 76.3242 10.0907 76.4719 10.5366 76.531C10.6258 76.531 10.5663 76.915 10.4772 76.915H7.47505C7.38588 76.915 7.32643 76.531 7.4156 76.531Z" fill="white"/>
<path d="M18.3242 76.8264L13.3603 71.8051V75.5563C13.3603 76.2652 13.7765 76.3833 14.4304 76.531C14.5196 76.5605 14.4601 76.915 14.371 76.915H11.785C11.6958 76.915 11.6364 76.5605 11.7255 76.531C12.1119 76.3833 12.5875 76.3243 12.5875 75.5563V71.5983C12.5875 70.8008 12.4389 70.5054 12.2308 70.151C12.1119 70.0033 12.0228 69.9147 12.0228 69.8556C12.0228 69.767 12.0822 69.6193 12.2606 69.6193H13.0631C13.182 69.6193 13.2415 69.6193 13.3009 69.7079L18.1459 74.6702V70.9485C18.1459 70.21 17.6703 70.1214 17.0758 70.0033C16.9867 69.9737 17.0461 69.6193 17.1353 69.6193H19.7212C19.8104 69.6193 19.8401 69.9737 19.7807 70.0033C19.3051 70.151 18.9187 70.21 18.9187 70.9485V74.936C18.9187 75.6744 18.9484 76.4129 19.0376 76.7968C19.0673 76.9445 18.9187 77.0036 18.7404 77.0036C18.562 77.0036 18.4431 76.9445 18.3242 76.8264Z" fill="white"/>
<path d="M20.8805 76.5015C21.475 76.3538 21.9506 76.2652 21.9506 75.4677V70.8894C21.9506 70.2396 21.5345 70.0623 21.0886 69.9442C20.9994 69.9147 21.0589 69.5602 21.1481 69.5602C21.5642 69.6193 22.01 69.6193 22.5153 69.6193C23.4071 69.6193 24.1204 69.5602 24.6555 69.5602C27.1523 69.5602 28.579 71.0666 28.579 73.0751C28.579 75.0246 27.182 76.8854 24.6555 76.8854C24.1502 76.8854 23.526 76.8264 22.664 76.8264C21.9506 76.8264 21.4453 76.8264 20.94 76.8854C20.8508 76.9445 20.7914 76.531 20.8805 76.5015ZM27.1523 73.7545C27.1523 71.7164 26.0822 70.1805 24.2988 70.1805C23.6151 70.1805 23.3476 70.3873 23.3476 70.9189V75.4972C23.3476 76.0584 23.7935 76.3538 24.8041 76.3538C26.4389 76.3538 27.1523 75.4677 27.1523 73.7545Z" fill="white"/>
<path d="M30.6597 74.168V70.9485C30.6597 70.2986 30.3327 70.0624 29.8274 70.0033C29.7383 70.0033 29.7977 69.6193 29.8869 69.6193H32.889C32.9782 69.6193 33.0376 70.0033 32.9484 70.0033C32.5323 70.0328 32.0864 70.21 32.0864 70.9485V74.2271C32.0864 75.6744 32.9187 76.3242 33.959 76.3242C35.0588 76.3242 35.9505 75.6744 35.9505 74.2271V70.9485C35.9505 70.2691 35.5641 70.0919 35.0588 70.0033C34.9994 70.0033 35.0291 69.6193 35.1183 69.6193H37.5259C37.5854 69.6193 37.6745 70.0033 37.5556 70.0033C37.1395 70.0328 36.7234 70.21 36.7234 70.9485V74.168C36.7234 76.088 35.475 77.0922 33.7807 77.0922C32.354 77.0922 30.6597 76.2947 30.6597 74.168Z" fill="white"/>
<path d="M38.8337 76.2356L38.9526 75.8221C39.2796 74.6702 39.6363 76.3243 41.3602 76.3243C42.2222 76.3243 42.5789 75.9107 42.5789 75.3495C42.5789 74.9065 42.3114 74.6997 41.5089 74.2271L40.6171 73.6364C39.4282 72.8684 38.9229 72.4549 38.9229 71.6278C38.9229 70.2987 40.2307 69.4421 41.5089 69.4421C42.2817 69.4421 43.322 69.7965 43.2328 70.151L43.0842 70.5645C42.7275 71.6574 42.4897 70.21 41.063 70.21C40.3496 70.21 39.9929 70.5645 39.9929 71.0962C39.9929 71.5688 40.2902 71.8346 40.9738 72.2777L41.9844 72.9275C43.1139 73.6364 43.5895 74.109 43.5895 74.8769C43.5895 76.2061 42.3114 77.1218 40.8847 77.1218C40.0524 77.0922 38.7148 76.7082 38.8337 76.2356Z" fill="white"/>
<path d="M46.2647 76.531C47.0078 76.4424 47.4834 76.2947 47.4834 75.7335V70.6827C47.4834 70.4168 47.3942 70.3282 47.1267 70.3282H46.8889C45.9377 70.3282 45.3135 70.594 45.1352 71.0076C45.0163 71.2143 44.6596 71.1848 44.6893 71.0076C44.7785 70.6531 44.8677 70.2987 44.9271 69.7079C44.9568 69.5012 45.0757 69.5307 45.2541 69.5307C45.8188 69.5898 46.1755 69.5898 48.2264 69.5898C50.2477 69.5898 50.9016 69.5602 51.4961 69.5307C51.7041 69.5012 51.8825 69.5012 51.7933 69.7079C51.6447 70.2101 51.5258 70.6236 51.4663 71.0076C51.4366 71.1848 51.1394 71.1848 51.1097 71.0076C50.9908 70.6236 50.5152 70.3282 49.6532 70.3282H49.356C49.1182 70.3282 48.9398 70.3873 48.9398 70.6827V75.7335C48.9398 76.2947 49.4154 76.4424 50.1585 76.531C50.2477 76.531 50.1882 76.915 50.099 76.915H46.3836C46.235 76.915 46.1755 76.5606 46.2647 76.531Z" fill="white"/>
<path d="M60.7699 76.9445C60.0565 77.1513 59.1053 77.1513 58.4514 76.2947L56.8463 74.2566C56.3707 73.6659 55.8952 73.5773 55.1818 73.5773V75.5858C55.1818 76.3242 55.6871 76.4424 56.341 76.531C56.4005 76.531 56.3707 76.915 56.2816 76.915H52.9822C52.893 76.915 52.8336 76.531 52.9228 76.531C53.4578 76.4719 53.7848 76.2356 53.7848 75.5858V71.0075C53.7848 70.3281 53.4281 70.1214 52.9228 69.9737C52.8336 69.9442 52.893 69.5897 52.9822 69.5897C53.3984 69.6488 53.8442 69.6488 54.2009 69.6488C55.0332 69.6488 55.806 69.5897 56.3113 69.5897C57.9758 69.5897 58.9864 70.2691 58.9864 71.5096C58.9864 72.6911 58.0353 73.2819 57.0841 73.341V73.3705C57.53 73.3705 57.8569 73.5772 58.3325 74.1385L59.8484 76.0288C60.2051 76.4719 60.5321 76.59 60.7401 76.59C60.859 76.6491 60.8293 76.9445 60.7699 76.9445ZM57.53 71.805C57.53 70.7121 56.8463 70.1805 55.9546 70.1805C55.3601 70.1805 55.1818 70.4168 55.1818 71.0075V73.0751H55.4493C56.9949 73.0751 57.53 72.8093 57.53 71.805Z" fill="white"/>
<path d="M61.7805 76.531C62.3155 76.4719 62.6425 76.2356 62.6425 75.5858V70.9485C62.6425 70.2986 62.3155 70.0919 61.7805 70.0033C61.6913 70.0033 61.7508 69.6193 61.8399 69.6193H64.8421C64.9312 69.6193 64.9907 70.0033 64.9015 70.0033C64.4556 70.0624 64.0395 70.21 64.0395 70.9485V75.5858C64.0395 76.3242 64.4556 76.4719 64.9015 76.531C64.9907 76.531 64.9312 76.915 64.8421 76.915H61.8399C61.7508 76.915 61.6913 76.531 61.7805 76.531Z" fill="white"/>
<path d="M73.7592 76.915H70.876C70.7274 76.915 70.7274 76.5605 70.8463 76.531C71.2327 76.4719 71.6488 76.3242 71.2624 75.4381L71.1732 75.2609C71.0543 74.9951 70.9354 74.9655 70.6382 74.9655H68.5278C68.2009 74.9655 68.0522 74.9951 67.9631 75.2609L67.9036 75.4381C67.5469 76.3242 67.9333 76.4719 68.4386 76.531C68.5873 76.5605 68.5575 76.915 68.4089 76.915H66.0905C65.9716 76.915 65.9418 76.5605 66.0607 76.531C66.4769 76.4719 66.7444 76.3242 67.1308 75.4381L68.9142 71.362C69.3304 70.4463 69.4493 70.0328 69.4493 69.6488C69.4493 69.5897 70.1923 69.4125 70.2221 69.5011L72.7783 75.4381C73.135 76.2947 73.4025 76.4719 73.8187 76.531C73.9078 76.5605 73.8781 76.915 73.7592 76.915ZM70.6977 74.1976L69.5681 71.4801L68.4386 74.1976C68.3792 74.3452 68.5278 74.3748 68.6467 74.3748H70.4896C70.6085 74.3452 70.7571 74.3452 70.6977 74.1976Z" fill="white"/>
<path d="M74.859 78.4214C75.2751 78.067 75.8101 77.3876 75.8101 76.915C75.8101 76.6492 75.1265 76.472 75.1265 76.1766C75.1265 75.8812 75.721 75.32 75.9885 75.32C76.256 75.32 76.8207 75.8812 76.8207 76.1766C76.8207 76.9741 76.0776 78.0374 75.1265 78.6282C75.0373 78.7168 74.7401 78.51 74.859 78.4214Z" fill="white"/>
<path d="M80.7145 73.4001C80.7145 71.5983 81.8143 69.4421 84.7867 69.4421C86.0054 69.4421 87.0754 69.8261 86.9268 70.1805L86.7782 70.6236C86.3621 71.8346 86.0351 70.3282 84.1031 70.3282C82.6169 70.3282 81.9629 71.3029 81.9629 72.7207C81.9629 75.0837 83.7761 75.9993 85.1137 75.9993C85.3217 75.9993 86.3323 75.8517 86.7782 75.5563C86.8674 75.4972 87.1052 75.763 87.0457 75.8517C86.5999 76.5015 85.1731 77.0627 84.8164 77.0627C83.0627 77.0922 80.7145 76.0584 80.7145 73.4001Z" fill="white"/>
<path d="M88.5022 73.3115C88.5022 71.2143 90.0181 69.4421 92.3069 69.4421C94.5064 69.4421 96.1115 71.0371 96.1115 73.1933C96.1115 75.32 94.5956 77.0627 92.2771 77.0627C90.137 77.0922 88.5022 75.4972 88.5022 73.3115ZM94.7442 73.8136C94.7442 71.746 93.3472 70.21 91.8907 70.21C90.999 70.21 89.8992 70.8008 89.8992 72.6912C89.8992 74.7883 91.2963 76.3243 92.7527 76.3243C93.6147 76.3243 94.7442 75.704 94.7442 73.8136Z" fill="white"/>
<path d="M106.782 76.915H103.899C103.84 76.915 103.78 76.531 103.84 76.531C104.315 76.4424 104.613 76.2061 104.583 75.5858L104.375 72.3072L102.799 75.5268C102.562 76.0289 102.383 76.4719 102.354 76.6196C102.324 76.7378 102.086 76.7969 101.908 76.7969C101.729 76.7969 101.61 76.7378 101.551 76.6196L99.1731 72.189L99.0244 75.5858C98.9947 76.3538 99.4703 76.5015 99.7675 76.531C99.8567 76.531 99.7973 76.915 99.7378 76.915H97.5085C97.4194 76.915 97.3599 76.531 97.4491 76.531C97.8949 76.4719 98.2814 76.3243 98.3111 75.5858L98.6678 69.6488C98.6678 69.4716 99.1136 69.4421 99.2325 69.6488L102.264 75.2314L105.058 69.6488C105.177 69.4421 105.623 69.4716 105.653 69.6488L106.01 75.5858C106.039 76.3243 106.426 76.4719 106.872 76.531C106.931 76.531 106.872 76.915 106.782 76.915Z" fill="white"/>
<path d="M107.942 76.5015C108.536 76.3538 109.012 76.2652 109.012 75.4677V70.8894C109.012 70.2396 108.596 70.0623 108.15 69.9442C108.06 69.9147 108.12 69.5602 108.209 69.5602C108.952 69.6488 110.438 69.6193 110.973 69.6193C111.925 69.6193 112.608 69.5897 113.5 69.5602C113.738 69.5602 113.767 69.7374 113.708 69.9737L113.47 70.978C113.441 71.1257 113.173 71.1257 113.143 70.978C112.965 70.4463 112.668 70.21 111.39 70.21C110.706 70.21 110.468 70.3873 110.468 70.9189V72.6025C110.468 72.8684 110.617 72.9275 110.825 72.9275H111.063C111.865 72.9275 112.608 72.8093 113.024 72.4844C113.143 72.3958 113.351 72.4253 113.262 72.6321L112.668 73.9317C112.579 74.1385 112.43 74.1089 112.311 73.9613C112.073 73.6068 111.538 73.4887 111.003 73.4887H110.825C110.617 73.4887 110.468 73.5477 110.468 73.8136V75.4972C110.468 76.0879 110.676 76.3242 111.538 76.3242C113.024 76.3242 113.738 75.5858 113.976 75.2018C114.035 75.0837 114.362 75.1723 114.362 75.3495C114.362 75.8516 113.886 76.9445 113.232 76.9445C112.579 76.915 112.073 76.8854 111.211 76.8854C110.26 76.8854 109.041 76.8559 108.09 76.9445C107.912 76.9445 107.852 76.531 107.942 76.5015Z" fill="white"/>
<path d="M123.368 76.9445C122.655 77.1513 121.704 77.1513 121.05 76.2947L119.445 74.2566C118.969 73.6659 118.494 73.5773 117.78 73.5773V75.5858C117.78 76.3242 118.285 76.4424 118.939 76.531C118.999 76.531 118.969 76.915 118.88 76.915H115.581C115.491 76.915 115.432 76.531 115.521 76.531C116.056 76.4719 116.383 76.2356 116.383 75.5858V71.0075C116.383 70.3281 116.026 70.1214 115.521 69.9737C115.432 69.9442 115.491 69.5897 115.581 69.5897C115.997 69.6488 116.443 69.6488 116.799 69.6488C117.632 69.6488 118.404 69.5897 118.91 69.5897C120.574 69.5897 121.585 70.2691 121.585 71.5096C121.585 72.6911 120.634 73.2819 119.682 73.341V73.3705C120.128 73.3705 120.455 73.5772 120.931 74.1385L122.447 76.0288C122.803 76.4719 123.13 76.59 123.339 76.59C123.457 76.6491 123.428 76.9445 123.368 76.9445ZM120.128 71.805C120.128 70.7121 119.445 70.1805 118.553 70.1805C117.959 70.1805 117.78 70.4168 117.78 71.0075V73.0751H118.048C119.593 73.0751 120.128 72.8093 120.128 71.805Z" fill="white"/>
<path d="M123.963 73.4001C123.963 71.5983 125.062 69.4421 128.035 69.4421C129.254 69.4421 130.324 69.8261 130.175 70.1805L130.026 70.6236C129.61 71.8346 129.283 70.3282 127.351 70.3282C125.865 70.3282 125.211 71.3029 125.211 72.7207C125.211 75.0837 127.024 75.9993 128.362 75.9993C128.57 75.9993 129.581 75.8517 130.026 75.5563C130.116 75.4972 130.353 75.763 130.294 75.8517C129.848 76.5015 128.421 77.0627 128.065 77.0627C126.311 77.0922 123.963 76.0584 123.963 73.4001Z" fill="white"/>
<path d="M131.631 76.531C132.166 76.4719 132.493 76.2356 132.493 75.5858V70.9485C132.493 70.2986 132.166 70.0919 131.631 70.0033C131.542 70.0033 131.602 69.6193 131.691 69.6193H134.693C134.782 69.6193 134.842 70.0033 134.752 70.0033C134.307 70.0624 133.89 70.21 133.89 70.9485V75.5858C133.89 76.3242 134.307 76.4719 134.752 76.531C134.842 76.531 134.782 76.915 134.693 76.915H131.691C131.631 76.915 131.572 76.531 131.631 76.531Z" fill="white"/>
<path d="M136.149 73.3115C136.149 71.2143 137.665 69.4421 139.954 69.4421C142.154 69.4421 143.759 71.0371 143.759 73.1933C143.759 75.32 142.243 77.0627 139.924 77.0627C137.755 77.0922 136.149 75.4972 136.149 73.3115ZM142.391 73.8136C142.391 71.746 140.994 70.21 139.538 70.21C138.646 70.21 137.546 70.8008 137.546 72.6912C137.546 74.7883 138.944 76.3243 140.4 76.3243C141.262 76.3243 142.391 75.704 142.391 73.8136Z" fill="white"/>
<path d="M51.7636 82.852C51.3772 82.9111 50.9908 83.2064 50.5152 83.9449L48.8507 86.5146V88.4641C48.8507 89.2025 49.2668 89.3207 49.9207 89.4093C49.9802 89.4093 49.9504 89.7933 49.8613 89.7933H46.4728C46.3836 89.7933 46.3241 89.4093 46.4133 89.4093C47.1267 89.3207 47.4834 89.173 47.4834 88.4641V86.5442L45.7297 83.9449C45.2541 83.236 44.9568 82.9111 44.511 82.852C44.3624 82.8225 44.3921 82.468 44.5407 82.468H47.4536C47.6023 82.468 47.6023 82.8225 47.4834 82.852C47.0078 82.9111 46.8592 83.2655 47.305 83.9449L48.5831 85.8353L49.8018 83.9449C50.218 83.2951 49.9504 82.9406 49.4154 82.852C49.2668 82.8225 49.2965 82.468 49.4451 82.468H51.7339C51.8528 82.4976 51.8825 82.852 51.7636 82.852Z" fill="white"/>
<path d="M64.6934 89.7932H61.8102C61.7508 89.7932 61.6913 89.4093 61.7508 89.4093C62.2264 89.3207 62.5236 89.0844 62.4939 88.4641L62.2858 85.1854L60.7104 88.405C60.4726 88.9071 60.2943 89.3502 60.2646 89.4979C60.2349 89.616 59.9971 89.6751 59.8187 89.6751C59.6404 89.6751 59.5215 89.616 59.462 89.4979L57.0841 85.0673L56.9355 88.4641C56.9058 89.232 57.3814 89.3797 57.6786 89.4093C57.7678 89.4093 57.7083 89.7932 57.6489 89.7932H55.4196C55.3304 89.7932 55.271 89.4093 55.3602 89.4093C55.806 89.3502 56.1924 89.2025 56.2221 88.4641L56.5788 82.5271C56.5788 82.3499 57.0247 82.3203 57.1436 82.5271L60.1754 88.1096L62.9695 82.5271C63.0883 82.3203 63.5342 82.3499 63.5639 82.5271L63.9206 88.4641C63.9503 89.2025 64.3367 89.3502 64.7826 89.4093C64.8123 89.4093 64.7529 89.7932 64.6934 89.7932Z" fill="white"/>
<path d="M66.0012 89.4093C66.5363 89.3502 66.8632 89.1139 66.8632 88.4641V83.8267C66.8632 83.1769 66.5363 82.9701 66.0012 82.8815C65.9121 82.8815 65.9715 82.4975 66.0607 82.4975H69.0628C69.152 82.4975 69.2114 82.8815 69.1222 82.8815C68.6764 82.9406 68.2602 83.0883 68.2602 83.8267V88.4641C68.2602 89.2025 68.6764 89.3502 69.1222 89.4093C69.2114 89.4093 69.152 89.7932 69.0628 89.7932H66.0607C65.9715 89.7932 65.9121 89.4093 66.0012 89.4093Z" fill="white"/>
<path d="M72.6297 86.9872V88.4345C72.6297 89.173 73.135 89.2911 73.7889 89.3797C73.8484 89.3797 73.8186 89.7637 73.7295 89.7637H70.4301C70.341 89.7637 70.2815 89.3797 70.3707 89.3797C70.9057 89.3207 71.2327 89.0844 71.2327 88.4345V83.8858C71.2327 83.2064 70.876 82.9997 70.3707 82.852C70.2815 82.8225 70.341 82.468 70.4301 82.468C70.8463 82.5271 71.2921 82.5271 71.6488 82.5271C72.4811 82.5271 73.135 82.468 73.67 82.468C75.3346 82.468 76.7019 83.0588 76.7019 84.6833C76.7316 86.5442 74.9779 87.3417 72.6297 86.9872ZM72.6297 83.8858V86.4851C74.3537 86.7214 75.1859 86.2488 75.1859 84.9491C75.1859 83.8267 74.4726 83.0588 73.3728 83.0588C72.7783 83.0588 72.6297 83.2655 72.6297 83.8858Z" fill="white"/>
<path d="M85.2326 82.852C84.8462 82.9111 84.4598 83.2064 83.9842 83.9449L82.3197 86.5146V88.4641C82.3197 89.2025 82.7358 89.3207 83.3897 89.4093C83.4492 89.4093 83.4194 89.7933 83.3303 89.7933H79.9417C79.8526 89.7933 79.7931 89.4093 79.8823 89.4093C80.5957 89.3207 80.9524 89.173 80.9524 88.4641V86.5442L79.1987 83.9449C78.7231 83.236 78.4258 82.9111 77.98 82.852C77.8314 82.8225 77.8611 82.468 78.0097 82.468H80.9226C81.0713 82.468 81.0712 82.8225 80.9524 82.852C80.4768 82.9111 80.3282 83.2655 80.774 83.9449L82.0521 85.8353L83.2708 83.9449C83.687 83.2951 83.4194 82.9406 82.8844 82.852C82.7358 82.8225 82.7655 82.468 82.9141 82.468H85.2029C85.292 82.4976 85.3515 82.852 85.2326 82.852Z" fill="white"/>
<path d="M95.3387 89.7932H92.4555C92.396 89.7932 92.3366 89.4093 92.396 89.4093C92.8716 89.3207 93.1689 89.0844 93.1391 88.4641L92.9311 85.1854L91.3557 88.405C91.1179 88.9071 90.9396 89.3502 90.9098 89.4979C90.8801 89.616 90.6423 89.6751 90.464 89.6751C90.2856 89.6751 90.1668 89.616 90.1073 89.4979L87.7294 85.0673L87.5808 88.4641C87.5511 89.232 88.0266 89.3797 88.3239 89.4093C88.413 89.4093 88.3536 89.7932 88.2942 89.7932H86.0649C85.9757 89.7932 85.9162 89.4093 86.0054 89.4093C86.4513 89.3502 86.8377 89.2025 86.8674 88.4641L87.2241 82.5271C87.2241 82.3499 87.6699 82.3203 87.7888 82.5271L90.8207 88.1096L93.6147 82.5271C93.7336 82.3203 94.1795 82.3499 94.2092 82.5271L94.5659 88.4641C94.5956 89.2025 94.982 89.3502 95.4279 89.4093C95.4873 89.4093 95.4279 89.7932 95.3387 89.7932Z" fill="white"/>
<path d="M96.4979 89.3797C97.0924 89.232 97.568 89.1434 97.568 88.3459V83.7676C97.568 83.1178 97.1518 82.9406 96.706 82.8224C96.6168 82.7929 96.6762 82.4384 96.7654 82.4384C97.5085 82.5271 98.9947 82.4975 99.5297 82.4975C100.481 82.4975 101.165 82.468 102.056 82.4384C102.294 82.4384 102.324 82.6157 102.264 82.852L102.027 83.8562C101.997 84.0039 101.729 84.0039 101.7 83.8562C101.521 83.3246 101.224 83.0883 99.9459 83.0883C99.2622 83.0883 99.0244 83.2655 99.0244 83.7972V85.4808C99.0244 85.7466 99.173 85.8057 99.3811 85.8057H99.6189C100.421 85.8057 101.165 85.6875 101.581 85.3626C101.7 85.274 101.908 85.3036 101.818 85.5103L101.224 86.81C101.135 87.0167 100.986 86.9872 100.867 86.8395C100.63 86.485 100.094 86.3669 99.5595 86.3669H99.3811C99.173 86.3669 99.0244 86.426 99.0244 86.6918V88.3754C99.0244 88.9662 99.2325 89.2025 100.094 89.2025C101.581 89.2025 102.294 88.464 102.532 88.0801C102.591 87.9619 102.918 88.0505 102.918 88.2277C102.918 88.7299 102.443 89.8228 101.789 89.8228C101.135 89.7932 100.63 89.7637 99.7675 89.7637C98.8164 89.7637 97.5977 89.7341 96.6465 89.8228C96.4682 89.8228 96.4087 89.4092 96.4979 89.3797Z" fill="white"/>
<path d="M104.256 89.1139L104.375 88.7004C104.702 87.5484 105.058 89.2025 106.782 89.2025C107.644 89.2025 108.001 88.789 108.001 88.2278C108.001 87.7847 107.734 87.5779 106.931 87.1053L106.039 86.5146C104.85 85.7466 104.345 85.3331 104.345 84.5061C104.345 83.1769 105.653 82.3203 106.931 82.3203C107.704 82.3203 108.744 82.6748 108.625 83.0292L108.477 83.4427C108.12 84.5356 107.882 83.0883 106.455 83.0883C105.742 83.0883 105.385 83.4427 105.385 83.9744C105.385 84.447 105.683 84.7128 106.366 85.1559L107.377 85.8057C108.506 86.5146 108.982 86.9872 108.982 87.7552C108.982 89.0843 107.704 90 106.277 90C105.475 89.9409 104.137 89.5865 104.256 89.1139Z" fill="white"/>
</svg>
